<svg width="24" height="24" viewBox="0 0 24 24" fill="none" xmlns="http://www.w3.org/2000/svg">
<path fill-rule="evenodd" clip-rule="evenodd" d="M11.6157 1.1298C11.8514 0.956734 12.1486 0.956734 12.3843 1.1298L21.9177 8.1298C22.1346 8.28905 22.2667 8.57115 22.2667 8.875C22.2667 9.35825 21.9383 9.75 21.5333 9.75H2.46667C2.21201 9.75 1.97559 9.59236 1.84212 9.33358C1.62986 8.92202 1.7374 8.38307 2.08233 8.1298L11.6157 1.1298ZM5.05757 8L12 2.90241L18.9424 8H5.05757Z" fill="#9397A6"/>
<path d="M4.66667 8.875V17.625C4.66667 18.1082 4.99499 18.5 5.4 18.5C5.80501 18.5 6.13333 18.1082 6.13333 17.625V8.875C6.13333 8.39175 5.80501 8 5.4 8C4.99499 8 4.66667 8.39175 4.66667 8.875Z" fill="#9397A6"/>
<path d="M9.06667 8.875V17.625C9.06667 18.1082 9.39499 18.5 9.8 18.5C10.205 18.5 10.5333 18.1082 10.5333 17.625V8.875C10.5333 8.39175 10.205 8 9.8 8C9.39499 8 9.06667 8.39175 9.06667 8.875Z" fill="#9397A6"/>
<path d="M13.4667 8.875V17.625C13.4667 18.1082 13.795 18.5 14.2 18.5C14.605 18.5 14.9333 18.1082 14.9333 17.625V8.875C14.9333 8.39175 14.605 8 14.2 8C13.795 8 13.4667 8.39175 13.4667 8.875Z" fill="#9397A6"/>
<path d="M17.8667 8.875V17.625C17.8667 18.1082 18.195 18.5 18.6 18.5C19.005 18.5 19.3333 18.1082 19.3333 17.625V8.875C19.3333 8.39175 19.005 8 18.6 8C18.195 8 17.8667 8.39175 17.8667 8.875Z" fill="#9397A6"/>
<path d="M3.2 18.5H20.8C21.205 18.5 21.5333 18.1082 21.5333 17.625C21.5333 17.1418 21.205 16.75 20.8 16.75H3.2C2.79499 16.75 2.46667 17.1418 2.46667 17.625C2.46667 18.1082 2.79499 18.5 3.2 18.5Z" fill="#9397A6"/>
<path d="M1.73333 22H22.2667C22.6717 22 23 21.6082 23 21.125C23 20.6418 22.6717 20.25 22.2667 20.25H1.73333C1.32832 20.25 1 20.6418 1 21.125C1 21.6082 1.32832 22 1.73333 22Z" fill="#9397A6"/>
</svg>
