<svg width="24" height="24" viewBox="0 0 24 24" fill="none" xmlns="http://www.w3.org/2000/svg">
<path fill-rule="evenodd" clip-rule="evenodd" d="M7.95031 4.05469C7.95031 4.05469 10.4202 4.05469 12.1666 5.80113C12.1666 5.80113 13.913 7.54758 13.913 10.0174C13.913 10.0174 13.913 12.4873 12.1666 14.2337C12.1666 14.2337 10.4202 15.9802 7.95031 15.9802C7.95031 15.9802 5.48047 15.9802 3.73402 14.2337C3.73402 14.2337 1.98758 12.4873 1.98758 10.0174C1.98758 10.0174 1.98758 7.54758 3.73402 5.80113C3.73402 5.80113 5.48046 4.05469 7.95031 4.05469ZM7.95031 5.64475C7.95031 5.64475 6.13909 5.64475 4.85836 6.92548C4.85836 6.92548 3.57764 8.2062 3.57764 10.0174C3.57764 10.0174 3.57764 11.8286 4.85837 13.1094C4.85837 13.1094 6.13909 14.3901 7.95031 14.3901C7.95031 14.3901 9.76153 14.3901 11.0423 13.1094C11.0423 13.1094 12.323 11.8286 12.323 10.0174C12.323 10.0174 12.323 8.2062 11.0423 6.92548C11.0423 6.92548 9.76153 5.64475 7.95031 5.64475Z" fill="#9397A6"/>
<path d="M19.1416 13.1094C17.8609 14.3901 16.0497 14.3901 16.0497 14.3901C15.6106 14.3901 15.2546 14.746 15.2546 15.1851C15.2546 15.6242 15.6106 15.9802 16.0497 15.9802C18.5195 15.9802 20.266 14.2337 20.266 14.2337C22.0124 12.4873 22.0124 10.0174 22.0124 10.0174C22.0124 7.54758 20.266 5.80113 20.266 5.80113C18.5195 4.05469 16.0497 4.05469 16.0497 4.05469C15.2298 4.05718 14.4408 4.2711 14.4408 4.2711C14.0944 4.36506 13.8534 4.6796 13.8534 5.03854L13.8534 5.04671C13.8541 5.11426 13.8634 5.18145 13.8811 5.24665C13.9751 5.59307 14.2895 5.83357 14.6484 5.83357L14.6566 5.83353C14.7242 5.83283 14.7913 5.82353 14.8565 5.80585C15.4436 5.64666 16.0497 5.64475 16.0497 5.64475C17.8609 5.64475 19.1416 6.92548 19.1416 6.92548C20.4224 8.2062 20.4224 10.0174 20.4224 10.0174C20.4224 11.8286 19.1416 13.1094 19.1416 13.1094Z" fill="#9397A6"/>
<path d="M11.6154 16.875C13.3386 17.7702 14.4551 19.359 14.4551 19.359C14.604 19.5708 14.8467 19.6969 15.1056 19.6969C15.1145 19.6969 15.1234 19.6967 15.1322 19.6964C15.2867 19.6913 15.4363 19.6412 15.5627 19.5523C15.7352 19.4311 15.8525 19.2463 15.8888 19.0386C15.8967 18.9934 15.9006 18.9477 15.9006 18.9019L15.9004 18.8847C15.897 18.727 15.8468 18.5738 15.7561 18.4447C14.4163 16.5382 12.3484 15.4639 12.3484 15.4639C10.2806 14.3897 7.95031 14.3901 7.95031 14.3901C5.62007 14.3901 3.55221 15.4639 3.55221 15.4639C1.48445 16.5381 0.144693 18.4445 0.144693 18.4445C0.0506212 18.5784 0 18.7382 0 18.9019C4.73875e-08 18.9202 0.000638026 18.9386 0.00191289 18.957C0.0185175 19.1959 0.141956 19.4146 0.33792 19.5523C0.471787 19.6464 0.631417 19.6969 0.795031 19.6969L0.797411 19.6969C0.84245 19.6968 0.887396 19.6928 0.931764 19.685C1.13948 19.6488 1.32428 19.5315 1.44551 19.359C2.56201 17.7702 4.28522 16.875 4.28522 16.875C6.00844 15.9798 7.95031 15.9802 7.95031 15.9802C9.89218 15.9802 11.6154 16.875 11.6154 16.875Z" fill="#9397A6"/>
<path d="M22.5538 19.3581C22.7027 19.5701 22.9459 19.6969 23.205 19.6969C23.2137 19.6969 23.2225 19.6968 23.2312 19.6965C23.3856 19.6914 23.5352 19.6414 23.6617 19.5526C23.8738 19.4038 24 19.161 24 18.9019C24 18.8932 23.9999 18.8844 23.9996 18.8757C23.9945 18.7212 23.9445 18.5716 23.8557 18.4451C23.8552 18.4444 23.8546 18.4436 23.8546 18.4436C22.5158 16.537 20.4483 15.463 20.4483 15.463C18.3802 14.3888 16.0497 14.3901 16.0497 14.3901C15.8388 14.3902 15.6362 14.4741 15.4872 14.6233C15.3383 14.7724 15.2546 14.9744 15.2546 15.1851C15.2546 15.6242 15.6106 15.9802 16.0497 15.9802C17.9916 15.979 19.7153 16.8741 19.7153 16.8741C21.4383 17.7691 22.5538 19.3581 22.5538 19.3581Z" fill="#9397A6"/>
</svg>
