<svg width="24" height="24" viewBox="0 0 24 24" fill="none" xmlns="http://www.w3.org/2000/svg">
<path fill-rule="evenodd" clip-rule="evenodd" d="M2.25 5.25C2.25 5.25 2.25 4.62868 2.68934 4.18934C2.68934 4.18934 3.12868 3.75 3.75 3.75H20.25C20.25 3.75 20.8713 3.75 21.3107 4.18934C21.3107 4.18934 21.75 4.62868 21.75 5.25V16.5C21.75 16.5 21.75 17.1213 21.3107 17.5607C21.3107 17.5607 20.8713 18 20.25 18H3.75C3.75 18 3.12868 18 2.68934 17.5607C2.68934 17.5607 2.25 17.1213 2.25 16.5V5.25ZM3.75 5.25V16.5H20.25V5.25H3.75Z" fill="#9397A6"/>
<path d="M17.4141 21.4682C17.5383 21.6235 17.7195 21.7234 17.9172 21.7454C17.9447 21.7485 17.9723 21.75 18 21.75C18.0087 21.75 18.0173 21.7498 18.026 21.7495C18.1873 21.744 18.3425 21.6865 18.4685 21.5857C18.6464 21.4433 18.75 21.2278 18.75 21C18.75 20.9889 18.7498 20.9778 18.7493 20.9667C18.7422 20.808 18.6849 20.6556 18.5857 20.5315L15.5857 16.7815C15.4433 16.6036 15.2278 16.5 15 16.5C14.9889 16.5 14.9778 16.5002 14.9667 16.5007C14.808 16.5078 14.6556 16.5651 14.5315 16.6643C14.3536 16.8067 14.25 17.0222 14.25 17.25C14.25 17.2611 14.2502 17.2722 14.2507 17.2833C14.2578 17.442 14.3151 17.5944 14.4143 17.7185L17.4141 21.4682Z" fill="#9397A6"/>
<path d="M9.58565 17.7185L9.58832 17.7152C9.69303 17.5827 9.75 17.4188 9.75 17.25C9.75 17.0222 9.64643 16.8067 9.46852 16.6643C9.44983 16.6494 9.43044 16.6353 9.41041 16.6223C9.28839 16.5425 9.14578 16.5 9 16.5C8.97233 16.5 8.94468 16.5015 8.91718 16.5046L8.91547 16.5048C8.71841 16.5271 8.53824 16.6266 8.41435 16.7815L5.41458 20.5312C5.30819 20.6642 5.25 20.8297 5.25 21L5.25002 21.0054C5.25165 21.2313 5.35504 21.4445 5.53148 21.5857C5.66446 21.692 5.8297 21.75 6 21.75H6.00148C6.02866 21.7499 6.05581 21.7484 6.08282 21.7454C6.28052 21.7234 6.46139 21.6238 6.58565 21.4685L9.58565 17.7185Z" fill="#9397A6"/>
<path d="M8.25 11.25V13.5C8.25 13.9142 8.58579 14.25 9 14.25C9.41421 14.25 9.75 13.9142 9.75 13.5V11.25C9.75 10.8358 9.41421 10.5 9 10.5C8.58579 10.5 8.25 10.8358 8.25 11.25Z" fill="#9397A6"/>
<path d="M11.25 9.75V13.5C11.25 13.9142 11.5858 14.25 12 14.25C12.4142 14.25 12.75 13.9142 12.75 13.5V9.75C12.75 9.33579 12.4142 9 12 9C11.5858 9 11.25 9.33579 11.25 9.75Z" fill="#9397A6"/>
<path d="M14.25 8.25V13.5C14.25 13.9142 14.5858 14.25 15 14.25C15.4142 14.25 15.75 13.9142 15.75 13.5V8.25C15.75 7.83579 15.4142 7.5 15 7.5C14.5858 7.5 14.25 7.83579 14.25 8.25Z" fill="#9397A6"/>
<path d="M12.75 4.5V2.25C12.75 1.83579 12.4142 1.5 12 1.5C11.5858 1.5 11.25 1.83579 11.25 2.25V4.5C11.25 4.91421 11.5858 5.25 12 5.25C12.4142 5.25 12.75 4.91421 12.75 4.5Z" fill="#9397A6"/>
</svg>
