<svg width="24" height="24" viewBox="0 0 24 24" fill="none" xmlns="http://www.w3.org/2000/svg">
<path fill-rule="evenodd" clip-rule="evenodd" d="M18 5.25H5.25C5.25 5.25 4.93934 5.25 4.71967 5.46967C4.71967 5.46967 4.5 5.68934 4.5 6C4.5 6 4.5 6.31066 4.71967 6.53033C4.71967 6.53033 4.93934 6.75 5.25 6.75H20.25C20.25 6.75 20.8713 6.75 21.3107 7.18934C21.3107 7.18934 21.75 7.62868 21.75 8.25V18.75C21.75 18.75 21.75 19.3713 21.3107 19.8107C21.3107 19.8107 20.8713 20.25 20.25 20.25H5.25C5.25 20.25 4.31802 20.25 3.65901 19.591C3.65901 19.591 3 18.932 3 18V6C3 6 3 5.06802 3.65901 4.40901C3.65901 4.40901 4.31802 3.75 5.25 3.75H18C18.4142 3.75 18.75 4.08579 18.75 4.5C18.75 4.91421 18.4142 5.25 18 5.25ZM4.5 18V8.12851C4.5 8.12851 4.84984 8.25 5.25 8.25H20.25V18.75H5.25C5.25 18.75 4.93934 18.75 4.71967 18.5303C4.71967 18.5303 4.5 18.3107 4.5 18Z" fill="#9397A6"/>
<path d="M18 13.5C18 14.1213 17.4963 14.625 16.875 14.625C16.2537 14.625 15.75 14.1213 15.75 13.5C15.75 12.8787 16.2537 12.375 16.875 12.375C17.4963 12.375 18 12.8787 18 13.5Z" fill="#9397A6"/>
</svg>
