<svg width="24" height="24" viewBox="0 0 24 24" fill="none" xmlns="http://www.w3.org/2000/svg">
<path fill-rule="evenodd" clip-rule="evenodd" d="M0.800781 5.6C0.800781 5.6 0.800781 4.93726 1.26941 4.46863C1.26941 4.46863 1.73804 4 2.40078 4H21.6008C21.6008 4 22.2635 4 22.7322 4.46863C22.7322 4.46863 23.2008 4.93726 23.2008 5.6V18.4C23.2008 18.4 23.2008 19.0627 22.7322 19.5314C22.7322 19.5314 22.2635 20 21.6008 20H2.40078C2.40078 20 1.73804 20 1.26941 19.5314C1.26941 19.5314 0.800781 19.0627 0.800781 18.4V5.6ZM2.40078 5.6V18.4H21.6008V5.6H2.40078Z" fill="#9397A6"/>
<path d="M16.0008 16.8H19.2008C19.6426 16.8 20.0008 16.4418 20.0008 16C20.0008 15.5582 19.6426 15.2 19.2008 15.2H16.0008C15.559 15.2 15.2008 15.5582 15.2008 16C15.2008 16.4418 15.559 16.8 16.0008 16.8Z" fill="#9397A6"/>
<path d="M10.4008 16C10.4008 16.4418 10.759 16.8 11.2008 16.8H12.8008C13.2426 16.8 13.6008 16.4418 13.6008 16C13.6008 15.5582 13.2426 15.2 12.8008 15.2H11.2008C10.759 15.2 10.4008 15.5582 10.4008 16Z" fill="#9397A6"/>
<path d="M1.60078 9.69004H22.4008C22.8426 9.69004 23.2008 9.33187 23.2008 8.89004C23.2008 8.44821 22.8426 8.09004 22.4008 8.09004H1.60078C1.15895 8.09004 0.800781 8.44821 0.800781 8.89004C0.800781 9.33187 1.15895 9.69004 1.60078 9.69004Z" fill="#9397A6"/>
</svg>
