<svg width="24" height="24" viewBox="0 0 24 24" fill="none" xmlns="http://www.w3.org/2000/svg">
<path d="M12.3649 18.2935C11.2143 19.4442 11.2143 21.0714 11.2143 21.0714C11.2143 21.5054 11.5661 21.8571 12 21.8571C12.4339 21.8571 12.7857 21.5054 12.7857 21.0714C12.7857 20.0951 13.4761 19.4047 13.4761 19.4047C14.1665 18.7143 15.1429 18.7143 15.1429 18.7143H21.4286C22.0795 18.7143 22.5397 18.254 22.5397 18.254C23 17.7938 23 17.1429 23 17.1429V4.57143C23 3.92052 22.5397 3.46026 22.5397 3.46026C22.0795 3 21.4286 3 21.4286 3H15.1429C13.5156 3 12.3649 4.15065 12.3649 4.15065C11.2143 5.3013 11.2143 6.92857 11.2143 6.92857C11.2143 7.36251 11.5661 7.71429 12 7.71429C12.2084 7.71429 12.4082 7.63151 12.5556 7.48416C12.7029 7.33681 12.7857 7.13696 12.7857 6.92857C12.7857 5.95221 13.4761 5.26182 13.4761 5.26182C14.1665 4.57143 15.1429 4.57143 15.1429 4.57143H21.4286V17.1429H15.1429C13.5156 17.1429 12.3649 18.2935 12.3649 18.2935Z" fill="#ADBFDF"/>
<path fill-rule="evenodd" clip-rule="evenodd" d="M1 4.57143C1 4.57143 1 3.92052 1.46026 3.46026C1.46026 3.46026 1.92052 3 2.57143 3H8.85714C8.85714 3 10.4844 3 11.6351 4.15065C11.6351 4.15065 12.7857 5.3013 12.7857 6.92857V21.0714C12.7857 21.5054 12.4339 21.8571 12 21.8571C11.5661 21.8571 11.2143 21.5054 11.2143 21.0714C11.2143 21.0714 11.2143 20.0951 10.5239 19.4047C10.5239 19.4047 9.8335 18.7143 8.85714 18.7143H2.57143C2.57143 18.7143 1.92052 18.7143 1.46026 18.254C1.46026 18.254 1 17.7938 1 17.1429V4.57143ZM11.2143 6.92857V17.9234C11.2143 17.9234 10.1974 17.1429 8.85714 17.1429H2.57143V4.57143H8.85714C8.85714 4.57143 9.8335 4.57143 10.5239 5.26182C10.5239 5.26182 11.2143 5.95221 11.2143 6.92857Z" fill="#ADBFDF"/>
</svg>
