<svg width="24" height="22" viewBox="0 0 24 22" fill="none" xmlns="http://www.w3.org/2000/svg">
<path fill-rule="evenodd" clip-rule="evenodd" d="M3.4318 21.5977L6.99174 18.6219L6.99671 18.6177H21.6881C21.6881 18.6177 22.4179 18.6177 22.9339 18.1017C22.9339 18.1017 23.4499 17.5857 23.4499 16.8559V2.76177C23.4499 2.76177 23.4499 2.03202 22.9339 1.51601C22.9339 1.51601 22.4179 1 21.6881 1H2.30865C2.30865 1 1.5789 1 1.06289 1.51601C1.06289 1.51601 0.546875 2.03202 0.546875 2.76177V20.2473C0.546875 20.2473 0.550944 20.7643 0.826776 21.1932C0.826776 21.1932 1.10261 21.6222 1.56492 21.8375C1.56492 21.8375 2.02724 22.0528 2.53307 21.9878C2.53307 21.9878 3.0389 21.9228 3.4318 21.5977ZM6.98813 16.8559C6.98813 16.8559 6.34469 16.8561 5.85697 17.2742L2.30865 20.2403V2.76177H21.6881V16.8559H6.98813Z" fill="#9397A6"/>
<path d="M13.3197 9.80885C13.3197 10.5386 12.7281 11.1302 11.9984 11.1302C11.2687 11.1302 10.6771 10.5386 10.6771 9.80885C10.6771 9.0791 11.2687 8.48753 11.9984 8.48753C12.7281 8.48753 13.3197 9.0791 13.3197 9.80885Z" fill="#9397A6"/>
<path d="M8.0344 9.80885C8.0344 10.5386 7.44277 11.1302 6.71307 11.1302C5.98337 11.1302 5.39174 10.5386 5.39174 9.80885C5.39174 9.0791 5.98337 8.48753 6.71307 8.48753C7.44277 8.48753 8.0344 9.0791 8.0344 9.80885Z" fill="#9397A6"/>
<path d="M18.605 9.80885C18.605 10.5386 18.0134 11.1302 17.2837 11.1302C16.554 11.1302 15.9624 10.5386 15.9624 9.80885C15.9624 9.0791 16.554 8.48753 17.2837 8.48753C18.0134 8.48753 18.605 9.0791 18.605 9.80885Z" fill="#9397A6"/>
</svg>
