<svg width="16" height="16" viewBox="0 0 16 16" fill="none" xmlns="http://www.w3.org/2000/svg">
<path fill-rule="evenodd" clip-rule="evenodd" d="M3.99922 3.79922C3.33648 3.79922 2.79922 4.33648 2.79922 4.99922V10.9992C2.79922 11.662 3.33648 12.1992 3.99922 12.1992H11.6421C12.3048 12.1992 12.8421 11.662 12.8421 10.9992V10.4659H10.2135C8.8463 10.4659 7.69922 9.38262 7.69922 7.99922C7.69922 6.61582 8.8463 5.53255 10.2135 5.53255H12.8421V4.99922C12.8421 4.33648 12.3048 3.79922 11.6421 3.79922H3.99922ZM14.4421 5.53255V4.99922C14.4421 3.45282 13.1885 2.19922 11.6421 2.19922H3.99922C2.45282 2.19922 1.19922 3.45282 1.19922 4.99922V10.9992C1.19922 12.5456 2.45282 13.7992 3.99922 13.7992H11.6421C13.1885 13.7992 14.4421 12.5456 14.4421 10.9992V10.4659C14.8944 10.4647 15.2992 10.1021 15.2992 9.60813V6.39031C15.2992 5.89631 14.8944 5.53376 14.4421 5.53255ZM13.6992 7.13255H10.2135C9.68717 7.13255 9.29922 7.54167 9.29922 7.99922C9.29922 8.45677 9.68717 8.86588 10.2135 8.86588H13.6992V7.13255Z" fill="white"/>
</svg>
