<svg width="24" height="24" viewBox="0 0 24 24" fill="none" xmlns="http://www.w3.org/2000/svg">
<path fill-rule="evenodd" clip-rule="evenodd" d="M6.92308 12C6.92308 12 8.67552 12 9.91468 13.2392C9.91468 13.2392 11.1538 14.4783 11.1538 16.2308C11.1538 16.2308 11.1538 17.9832 9.91468 19.2224C9.91468 19.2224 8.67552 20.4615 6.92308 20.4615C6.92308 20.4615 5.17064 20.4615 3.93147 19.2224C3.93147 19.2224 2.69231 17.9832 2.69231 16.2308C2.69231 16.2308 2.69231 14.4783 3.93147 13.2392C3.93147 13.2392 5.17063 12 6.92308 12ZM6.92308 13.6923C6.92308 13.6923 5.87161 13.6923 5.12811 14.4358C5.12811 14.4358 4.38462 15.1793 4.38462 16.2308C4.38462 16.2308 4.38462 17.2822 5.12811 18.0257C5.12811 18.0257 5.87161 18.7692 6.92308 18.7692C6.92308 18.7692 7.97454 18.7692 8.71804 18.0257C8.71804 18.0257 9.46154 17.2822 9.46154 16.2308C9.46154 16.2308 9.46154 15.1793 8.71804 14.4358C8.71804 14.4358 7.97454 13.6923 6.92308 13.6923Z" fill="#9397A6"/>
<path d="M9.38275 21.0422C10.5441 21.6228 11.3231 22.6615 11.3231 22.6615C11.4577 22.8411 11.6582 22.9598 11.8803 22.9915C11.92 22.9972 11.96 23 12 23L12.0029 23C12.185 22.9994 12.362 22.94 12.5077 22.8308C12.7208 22.671 12.8462 22.4202 12.8462 22.1539L12.8461 22.1427C12.8437 21.9635 12.7845 21.7896 12.6769 21.6462C11.6582 20.2879 10.1396 19.5285 10.1396 19.5285C8.62095 18.7692 6.92308 18.7692 6.92308 18.7692C5.2252 18.7692 3.70658 19.5285 3.70658 19.5285C2.18795 20.2879 1.16923 21.6462 1.16923 21.6462C1.05938 21.7926 1 21.9708 1 22.1538L1.00003 22.1613C1.00036 22.1988 1.00319 22.2363 1.0085 22.2735C1.04024 22.4957 1.15893 22.6961 1.33846 22.8308C1.48493 22.9406 1.66307 23 1.84615 23L1.8536 23C1.89115 22.9996 1.92864 22.9968 1.96582 22.9915C2.18798 22.9598 2.38843 22.8411 2.52308 22.6615C3.3021 21.6228 4.4634 21.0422 4.4634 21.0422C5.6247 20.4615 6.92308 20.4615 6.92308 20.4615C8.22145 20.4615 9.38275 21.0422 9.38275 21.0422Z" fill="#9397A6"/>
<path fill-rule="evenodd" clip-rule="evenodd" d="M6.92308 1C6.92308 1 8.67552 1 9.91468 2.23916C9.91468 2.23916 11.1538 3.47833 11.1538 5.23077C11.1538 5.23077 11.1538 6.98321 9.91468 8.22237C9.91468 8.22237 8.67552 9.46154 6.92308 9.46154C6.92308 9.46154 5.17064 9.46154 3.93147 8.22237C3.93147 8.22237 2.69231 6.98321 2.69231 5.23077C2.69231 5.23077 2.69231 3.47833 3.93147 2.23916C3.93147 2.23916 5.17063 1 6.92308 1ZM6.92308 2.69231C6.92308 2.69231 5.87161 2.69231 5.12811 3.43581C5.12811 3.43581 4.38462 4.1793 4.38462 5.23077C4.38462 5.23077 4.38462 6.28224 5.12811 7.02573C5.12811 7.02573 5.87161 7.76923 6.92308 7.76923C6.92308 7.76923 7.97454 7.76923 8.71804 7.02573C8.71804 7.02573 9.46154 6.28224 9.46154 5.23077C9.46154 5.23077 9.46154 4.1793 8.71804 3.43581C8.71804 3.43581 7.97454 2.69231 6.92308 2.69231Z" fill="#9397A6"/>
<path d="M9.38275 10.0422C10.5441 10.6228 11.3231 11.6615 11.3231 11.6615C11.4577 11.8411 11.6582 11.9598 11.8803 11.9915C11.92 11.9972 11.96 12 12 12L12.0029 12C12.185 11.9994 12.362 11.94 12.5077 11.8308C12.7208 11.671 12.8462 11.4202 12.8462 11.1538L12.8461 11.1427C12.8437 10.9635 12.7845 10.7896 12.6769 10.6462C11.6582 9.28785 10.1396 8.52854 10.1396 8.52854C8.62095 7.76923 6.92308 7.76923 6.92308 7.76923C5.2252 7.76923 3.70658 8.52854 3.70658 8.52854C2.18795 9.28785 1.16923 10.6462 1.16923 10.6462C1.05938 10.7926 1 10.9708 1 11.1538L1.00003 11.1613C1.00036 11.1988 1.00319 11.2363 1.0085 11.2735C1.04024 11.4957 1.15893 11.6961 1.33846 11.8308C1.48493 11.9406 1.66307 12 1.84615 12L1.8536 12C1.89115 11.9996 1.92864 11.9968 1.96582 11.9915C2.18798 11.9598 2.38843 11.8411 2.52308 11.6615C3.3021 10.6228 4.4634 10.0422 4.4634 10.0422C5.6247 9.46154 6.92308 9.46154 6.92308 9.46154C8.22145 9.46154 9.38275 10.0422 9.38275 10.0422Z" fill="#9397A6"/>
<path fill-rule="evenodd" clip-rule="evenodd" d="M17.0769 12C17.0769 12 18.8294 12 20.0685 13.2392C20.0685 13.2392 21.3077 14.4783 21.3077 16.2308C21.3077 16.2308 21.3077 17.9832 20.0685 19.2224C20.0685 19.2224 18.8294 20.4615 17.0769 20.4615C17.0769 20.4615 15.3245 20.4615 14.0853 19.2224C14.0853 19.2224 12.8462 17.9832 12.8462 16.2308C12.8462 16.2308 12.8462 14.4783 14.0853 13.2392C14.0853 13.2392 15.3245 12 17.0769 12ZM17.0769 13.6923C17.0769 13.6923 16.0255 13.6923 15.282 14.4358C15.282 14.4358 14.5385 15.1793 14.5385 16.2308C14.5385 16.2308 14.5385 17.2822 15.282 18.0257C15.282 18.0257 16.0255 18.7692 17.0769 18.7692C17.0769 18.7692 18.1284 18.7692 18.8719 18.0257C18.8719 18.0257 19.6154 17.2822 19.6154 16.2308C19.6154 16.2308 19.6154 15.1793 18.8719 14.4358C18.8719 14.4358 18.1284 13.6923 17.0769 13.6923Z" fill="#9397A6"/>
<path d="M19.5366 21.0422C20.6979 21.6228 21.4769 22.6615 21.4769 22.6615C21.6116 22.8411 21.812 22.9598 22.0342 22.9915C22.0738 22.9972 22.1138 23 22.1538 23L22.1567 23C22.3388 22.9994 22.5159 22.94 22.6615 22.8308C22.8746 22.671 23 22.4202 23 22.1539L22.9999 22.1427C22.9976 21.9635 22.9383 21.7896 22.8308 21.6462C21.812 20.2879 20.2934 19.5285 20.2934 19.5285C18.7748 18.7692 17.0769 18.7692 17.0769 18.7692C15.379 18.7692 13.8604 19.5285 13.8604 19.5285C12.3418 20.2879 11.3231 21.6462 11.3231 21.6462C11.2132 21.7926 11.1538 21.9708 11.1538 22.1538L11.1539 22.1613C11.1542 22.1988 11.157 22.2363 11.1624 22.2735C11.1941 22.4957 11.3128 22.6961 11.4923 22.8308C11.6388 22.9406 11.8169 23 12 23L12.0074 23C12.045 22.9996 12.0825 22.9968 12.1197 22.9915C12.3418 22.9598 12.5423 22.8411 12.6769 22.6615C13.4559 21.6228 14.6172 21.0422 14.6172 21.0422C15.7785 20.4615 17.0769 20.4615 17.0769 20.4615C18.3753 20.4615 19.5366 21.0422 19.5366 21.0422Z" fill="#9397A6"/>
<path fill-rule="evenodd" clip-rule="evenodd" d="M17.0769 1C17.0769 1 18.8294 1 20.0685 2.23916C20.0685 2.23916 21.3077 3.47833 21.3077 5.23077C21.3077 5.23077 21.3077 6.98321 20.0685 8.22237C20.0685 8.22237 18.8294 9.46154 17.0769 9.46154C17.0769 9.46154 15.3245 9.46154 14.0853 8.22237C14.0853 8.22237 12.8462 6.98321 12.8462 5.23077C12.8462 5.23077 12.8462 3.47833 14.0853 2.23916C14.0853 2.23916 15.3245 1 17.0769 1ZM17.0769 2.69231C17.0769 2.69231 16.0255 2.69231 15.282 3.43581C15.282 3.43581 14.5385 4.1793 14.5385 5.23077C14.5385 5.23077 14.5385 6.28224 15.282 7.02573C15.282 7.02573 16.0255 7.76923 17.0769 7.76923C17.0769 7.76923 18.1284 7.76923 18.8719 7.02573C18.8719 7.02573 19.6154 6.28224 19.6154 5.23077C19.6154 5.23077 19.6154 4.1793 18.8719 3.43581C18.8719 3.43581 18.1284 2.69231 17.0769 2.69231Z" fill="#9397A6"/>
<path d="M19.5366 10.0422C20.6979 10.6228 21.4769 11.6615 21.4769 11.6615C21.6116 11.8411 21.812 11.9598 22.0342 11.9915C22.0738 11.9972 22.1138 12 22.1538 12L22.1567 12C22.3388 11.9994 22.5159 11.94 22.6615 11.8308C22.8746 11.671 23 11.4202 23 11.1538L22.9999 11.1427C22.9976 10.9635 22.9383 10.7896 22.8308 10.6462C21.812 9.28785 20.2934 8.52854 20.2934 8.52854C18.7748 7.76923 17.0769 7.76923 17.0769 7.76923C15.379 7.76923 13.8604 8.52854 13.8604 8.52854C12.3418 9.28785 11.3231 10.6462 11.3231 10.6462C11.2132 10.7926 11.1538 10.9708 11.1538 11.1538L11.1539 11.1613C11.1542 11.1988 11.157 11.2363 11.1624 11.2735C11.1941 11.4957 11.3128 11.6961 11.4923 11.8308C11.6388 11.9406 11.8169 12 12 12L12.0074 12C12.045 11.9996 12.0825 11.9968 12.1197 11.9915C12.3418 11.9598 12.5423 11.8411 12.6769 11.6615C13.4559 10.6228 14.6172 10.0422 14.6172 10.0422C15.7785 9.46154 17.0769 9.46154 17.0769 9.46154C18.3753 9.46154 19.5366 10.0422 19.5366 10.0422Z" fill="#9397A6"/>
</svg>
