<svg width="25" height="24" viewBox="0 0 25 24" fill="none" xmlns="http://www.w3.org/2000/svg">
<path fill-rule="evenodd" clip-rule="evenodd" d="M9.41016 4C9.41016 4 12.7768 4 15.1913 5.08653C15.1913 5.08653 16.4012 5.63101 17.0932 6.36726C17.0932 6.36726 17.9102 7.2364 17.9102 8.25C17.9102 8.25 17.9102 9.2636 17.0932 10.1327C17.0932 10.1327 16.4012 10.869 15.1913 11.4135C15.1913 11.4135 12.7768 12.5 9.41016 12.5C9.41016 12.5 6.04356 12.5 3.62905 11.4135C3.62905 11.4135 2.4191 10.869 1.72708 10.1327C1.72708 10.1327 0.910156 9.2636 0.910156 8.25C0.910156 8.25 0.910156 7.2364 1.72708 6.36726C1.72708 6.36726 2.4191 5.63101 3.62905 5.08653C3.62905 5.08653 6.04356 4 9.41016 4ZM9.41016 5.54545C9.41016 5.54545 6.37527 5.54545 4.26325 6.49586C4.26325 6.49586 3.33422 6.91392 2.85318 7.42571C2.85318 7.42571 2.45561 7.8487 2.45561 8.25C2.45561 8.25 2.45561 8.6513 2.85318 9.07429C2.85318 9.07429 3.33423 9.58608 4.26325 10.0041C4.26325 10.0041 6.37527 10.9545 9.41016 10.9545C9.41016 10.9545 12.445 10.9545 14.5571 10.0041C14.5571 10.0041 15.4861 9.58608 15.9671 9.07429C15.9671 9.07429 16.3647 8.6513 16.3647 8.25C16.3647 8.25 16.3647 7.8487 15.9671 7.42571C15.9671 7.42571 15.4861 6.91392 14.5571 6.49586C14.5571 6.49586 12.445 5.54545 9.41016 5.54545Z" fill="#9397A6"/>
<path d="M17.9102 12.1136V8.25C17.9102 7.82323 17.5642 7.47727 17.1374 7.47727C16.7107 7.47727 16.3647 7.82323 16.3647 8.25V12.1136C16.3647 12.5157 15.9672 12.9388 15.9672 12.9388C15.4865 13.4505 14.5577 13.8684 14.5577 13.8684C12.4467 14.8182 9.41016 14.8182 9.41016 14.8182C6.37362 14.8182 4.26258 13.8684 4.26258 13.8684C3.33384 13.4505 2.85309 12.9388 2.85309 12.9388C2.45561 12.5157 2.45561 12.1136 2.45561 12.1136V8.25C2.45561 7.82323 2.10965 7.47727 1.68288 7.47727C1.25612 7.47727 0.910156 7.82323 0.910156 8.25V12.1136C0.910157 13.1277 1.72671 13.9969 1.72671 13.9969C2.41856 14.7334 3.62848 15.2778 3.62848 15.2778C6.04197 16.3636 9.41016 16.3636 9.41016 16.3636C12.7783 16.3636 15.1918 15.2778 15.1918 15.2778C16.4017 14.7334 17.0936 13.9969 17.0936 13.9969C17.9102 13.1277 17.9102 12.1136 17.9102 12.1136Z" fill="#9397A6"/>
<path d="M5.54652 11.4375V15.3011C5.54652 15.7279 5.89248 16.0739 6.31925 16.0739C6.74601 16.0739 7.09197 15.7279 7.09197 15.3011V11.4375C7.09197 11.0107 6.74601 10.6648 6.31925 10.6648C5.89248 10.6648 5.54652 11.0107 5.54652 11.4375Z" fill="#9397A6"/>
<path d="M17.2113 8.70753C20.0372 8.97109 21.9198 9.99574 21.9198 9.99574C24.092 11.178 24.092 12.8864 24.092 12.8864C24.092 13.9005 23.2754 14.7697 23.2754 14.7697C22.5836 15.5062 21.3737 16.0505 21.3737 16.0505C18.9602 17.1364 15.592 17.1364 15.592 17.1364C12.6481 17.1364 10.3492 16.2769 10.3492 16.2769C10.3481 16.2765 10.3471 16.2761 10.3471 16.2761C10.1551 16.2043 9.99928 16.0591 9.91433 15.8726C9.87227 15.7803 9.8488 15.6805 9.84528 15.5791C9.84497 15.5702 9.84482 15.5612 9.84482 15.5523C9.84482 15.4598 9.86141 15.3681 9.8938 15.2815C10.0049 14.9847 10.286 14.7857 10.6029 14.7797L10.6175 14.7796C10.71 14.7796 10.8017 14.7962 10.8883 14.8286C12.9262 15.5909 15.592 15.5909 15.592 15.5909C18.6285 15.5909 20.7396 14.6411 20.7396 14.6411C21.6683 14.2233 22.149 13.7115 22.149 13.7115C22.5465 13.2884 22.5465 12.8864 22.5465 12.8864C22.5465 12.0964 21.181 11.3532 21.181 11.3532C19.5768 10.48 17.0658 10.2461 17.0658 10.2461C16.6685 10.2091 16.3647 9.87572 16.3647 9.47672C16.3647 9.45354 16.3657 9.43038 16.3678 9.40729L16.368 9.40505C16.3847 9.22565 16.4636 9.05773 16.591 8.93032C16.6079 8.9134 16.6256 8.89728 16.6441 8.882C16.7827 8.76696 16.9573 8.704 17.1374 8.704C17.1606 8.704 17.1838 8.70504 17.2069 8.70712L17.2091 8.70733L17.2113 8.70753Z" fill="#9397A6"/>
<path d="M24.092 16.75V12.8864C24.092 12.4596 23.746 12.1136 23.3192 12.1136C22.8925 12.1136 22.5465 12.4596 22.5465 12.8864V16.75C22.5465 17.1521 22.149 17.5752 22.149 17.5752C21.6683 18.0869 20.7396 18.5048 20.7396 18.5048C18.6285 19.4545 15.592 19.4545 15.592 19.4545C12.5554 19.4545 10.4444 18.5048 10.4444 18.5048C9.51566 18.0869 9.03491 17.5752 9.03491 17.5752C8.63743 17.1521 8.63743 16.75 8.63743 16.75L8.63743 15.5233C8.63743 15.0965 8.29147 14.7506 7.8647 14.7506C7.43794 14.7506 7.09198 15.0965 7.09198 15.5233L7.09197 16.75C7.09198 17.7641 7.90852 18.6333 7.90852 18.6333C8.60038 19.3698 9.8103 19.9141 9.8103 19.9141C12.2238 21 15.592 21 15.592 21C18.9602 21 21.3737 19.9141 21.3737 19.9141C22.5836 19.3698 23.2754 18.6333 23.2754 18.6333C24.092 17.7641 24.092 16.75 24.092 16.75Z" fill="#9397A6"/>
<path d="M17.9102 16.0739V19.9375C17.9102 20.3643 18.2561 20.7102 18.6829 20.7102C19.1096 20.7102 19.4556 20.3643 19.4556 19.9375V16.0739C19.4556 15.6471 19.1096 15.3011 18.6829 15.3011C18.2561 15.3011 17.9102 15.6471 17.9102 16.0739Z" fill="#9397A6"/>
<path d="M11.7283 11.4375V19.9375C11.7283 20.3643 12.0743 20.7102 12.5011 20.7102C12.9278 20.7102 13.2738 20.3643 13.2738 19.9375V11.4375C13.2738 11.0107 12.9278 10.6648 12.5011 10.6648C12.0743 10.6648 11.7283 11.0107 11.7283 11.4375Z" fill="#9397A6"/>
</svg>
