<svg width="24" height="24" viewBox="0 0 24 24" fill="none" xmlns="http://www.w3.org/2000/svg">
<path fill-rule="evenodd" clip-rule="evenodd" d="M0.949219 19.3V4.85C0.949219 4.38056 1.32978 4 1.79922 4H22.1992C22.6687 4 23.0492 4.38056 23.0492 4.85V19.3C23.0492 19.3 23.0492 20.0042 22.5513 20.5021C22.5513 20.5021 22.0534 21 21.3492 21H2.64922C2.64922 21 1.94506 21 1.44714 20.5021C1.44714 20.5021 0.949219 20.0042 0.949219 19.3ZM2.64922 19.3H21.3492V5.7H2.64922V19.3Z" fill="#9397A6"/>
<path d="M1.79922 10.8H22.1992C22.6687 10.8 23.0492 10.4194 23.0492 9.95C23.0492 9.48056 22.6687 9.1 22.1992 9.1H1.79922C1.32978 9.1 0.949219 9.48056 0.949219 9.95C0.949219 10.4194 1.32978 10.8 1.79922 10.8Z" fill="#9397A6"/>
<path d="M1.79922 15.9H22.1992C22.6687 15.9 23.0492 15.5194 23.0492 15.05C23.0492 14.5806 22.6687 14.2 22.1992 14.2H1.79922C1.32978 14.2 0.949219 14.5806 0.949219 15.05C0.949219 15.5194 1.32978 15.9 1.79922 15.9Z" fill="#9397A6"/>
<path d="M6.89922 9.95V20.15C6.89922 20.6194 7.27978 21 7.74922 21C8.21866 21 8.59922 20.6194 8.59922 20.15V9.95C8.59922 9.48056 8.21866 9.1 7.74922 9.1C7.27978 9.1 6.89922 9.48056 6.89922 9.95Z" fill="#9397A6"/>
</svg>
