<svg width="24" height="24" viewBox="0 0 24 24" fill="none" xmlns="http://www.w3.org/2000/svg">
<path fill-rule="evenodd" clip-rule="evenodd" d="M11.1919 1.52315C11.1919 1.52315 11.5598 1.4513 11.918 1.56076C11.918 1.56076 12.2766 1.67033 12.5414 1.93574L22.3284 11.7227C22.3284 11.7227 22.5375 11.927 22.6543 12.2044C22.6543 12.2044 22.771 12.4817 22.771 12.7827C22.771 12.7827 22.771 13.0837 22.6543 13.361C22.6543 13.361 22.5375 13.6384 22.3223 13.8488L13.844 22.3271C13.844 22.3271 13.6397 22.5362 13.3623 22.653C13.3623 22.653 13.085 22.7697 12.784 22.7697C12.784 22.7697 12.483 22.7697 12.2056 22.653C12.2056 22.653 11.9283 22.5362 11.7179 22.321L1.93648 12.5396C1.93648 12.5396 1.67162 12.2753 1.56206 11.9167C1.56206 11.9167 1.45249 11.5581 1.52454 11.1901L3.03443 3.6219C3.09372 3.32472 3.32602 3.09242 3.6232 3.03313L11.1888 1.52375L11.1919 1.52315ZM4.40751 4.40622L11.4797 2.99529L21.2671 12.7827L12.784 21.2658L2.99658 11.4784L4.40751 4.40622Z" fill="#9397A6"/>
<path d="M8.83246 7.70615C8.83246 8.32743 8.32878 8.83115 7.70746 8.83115C7.08614 8.83115 6.58246 8.32743 6.58246 7.70615C6.58246 7.08488 7.08614 6.58115 7.70746 6.58115C8.32878 6.58115 8.83246 7.08488 8.83246 7.70615Z" fill="#9397A6"/>
</svg>
