<svg width="24" height="24" viewBox="0 0 24 24" fill="none" xmlns="http://www.w3.org/2000/svg">
<path d="M15.2681 1.86942C17.778 2.54334 19.6156 4.3813 19.6156 4.3813C21.4533 6.21935 22.1271 8.72984 22.1271 8.72984C22.1465 8.8022 22.1568 8.87723 22.1573 8.95215L22.1574 8.95887C22.1574 9.35781 21.8895 9.70704 21.5043 9.81044C21.435 9.82904 21.3638 9.83911 21.292 9.84043L21.2758 9.84058C21.1212 9.84058 20.9693 9.7999 20.8353 9.72263C20.6328 9.60579 20.485 9.41327 20.4244 9.18742L20.424 9.18605C19.8725 7.13211 18.3689 5.62822 18.3689 5.62822C16.8648 4.12383 14.8103 3.57237 14.8103 3.57237C14.4251 3.46896 14.1572 3.11973 14.1572 2.72079C14.1572 2.64587 14.1668 2.57126 14.1856 2.49875L14.1874 2.49225C14.2436 2.28283 14.3749 2.10146 14.5564 1.98281C14.5701 1.97383 14.5841 1.96523 14.5983 1.95704C14.7323 1.87976 14.8842 1.83909 15.0388 1.83909C15.1137 1.83909 15.1883 1.84863 15.2608 1.8675L15.2681 1.86942Z" fill="#9397A6"/>
<path d="M17.0187 10.0996C17.1213 10.486 17.4711 10.7554 17.8708 10.7554L17.8752 10.7554C17.9501 10.755 18.0247 10.7451 18.0971 10.7259C18.4834 10.6232 18.7524 10.2735 18.7524 9.87369L18.7524 9.86926C18.752 9.79434 18.7421 9.71978 18.7228 9.64737C18.2972 8.04525 17.125 6.87234 17.125 6.87234C15.9528 5.69988 14.3505 5.27426 14.3505 5.27426C14.2767 5.25465 14.2006 5.24472 14.1242 5.24472L14.1073 5.24489C13.7139 5.25243 13.3732 5.51978 13.2722 5.90011C13.2526 5.97395 13.2426 6.05003 13.2426 6.12643C13.2426 6.13635 13.2428 6.14626 13.2431 6.15617C13.248 6.30144 13.2888 6.44325 13.3617 6.56897C13.4791 6.77123 13.6719 6.91857 13.8979 6.9786C15.0411 7.28246 15.8783 8.11926 15.8783 8.11926C16.7149 8.95599 17.0187 10.0996 17.0187 10.0996Z" fill="#9397A6"/>
<path fill-rule="evenodd" clip-rule="evenodd" d="M10.2987 8.89213L8.46197 11.6862C8.46197 11.6862 9.72891 14.3001 12.3416 15.5572L12.3452 15.5548L15.0949 13.7177C15.0949 13.7177 15.4684 13.4644 15.9177 13.423C15.9177 13.423 16.3671 13.3816 16.7751 13.5601L21.9231 15.7716C21.9231 15.7716 22.47 15.9992 22.7666 16.5121C22.7666 16.5121 23.0631 17.025 22.9877 17.6124C22.9877 17.6124 22.6918 19.9222 20.9442 21.4608C20.9442 21.4608 19.1965 22.9995 16.868 23C16.868 23 13.7117 23 10.7956 21.7919C10.7956 21.7919 7.87951 20.5838 5.64764 18.3516C5.64764 18.3516 3.41576 16.1193 2.20788 13.2027C2.20788 13.2027 1 10.2862 1 7.12907C1 7.12907 1.00053 4.80039 2.5389 3.05244C2.5389 3.05244 4.07728 1.30449 6.3864 1.00859C6.3864 1.00859 6.97396 0.933102 7.48677 1.22972C7.48677 1.22972 7.99958 1.52633 8.22361 2.06481L10.4368 7.2299C10.4368 7.2299 10.6123 7.63392 10.5772 8.07301C10.5772 8.07301 10.542 8.5121 10.2987 8.89213ZM6.87159 12.4474L6.87019 12.4445C6.87019 12.4445 6.67314 12.0309 6.70246 11.5734C6.70246 11.5734 6.73189 11.1143 6.98179 10.7281L8.81963 7.93232L6.60305 2.75946C6.60305 2.75946 4.95841 2.97219 3.86233 4.21759C3.86233 4.21759 2.76349 5.46613 2.76311 7.12947C2.76311 7.12947 2.76312 9.93539 3.83679 12.5279C3.83679 12.5279 4.91046 15.1204 6.89435 17.1046C6.89435 17.1046 8.87824 19.0889 11.4703 20.1627C11.4703 20.1627 14.0624 21.2366 16.868 21.2366C16.868 21.2366 18.5309 21.2362 19.7792 20.1372C19.7792 20.1372 21.0245 19.0408 21.2379 17.3963L16.0796 15.1805L13.3246 17.0212C13.3246 17.0212 12.941 17.2802 12.4752 17.3156C12.4752 17.3156 12.0093 17.351 11.5871 17.151C11.5871 17.151 8.40836 15.6215 6.87335 12.4511L6.87269 12.4497L6.87229 12.4489L6.87159 12.4474Z" fill="#9397A6"/>
</svg>
