<svg width="24" height="24" viewBox="0 0 24 24" fill="none" xmlns="http://www.w3.org/2000/svg">
<path fill-rule="evenodd" clip-rule="evenodd" d="M1.91797 4.38462C1.91797 4.38462 1.91797 3.68364 2.41019 3.18797C2.41019 3.18797 2.90242 2.69231 3.59852 2.69231H20.4041C20.4041 2.69231 21.1002 2.69231 21.5924 3.18797C21.5924 3.18797 22.0846 3.68364 22.0846 4.38462V21.3077C22.0846 21.3077 22.0846 22.0087 21.5924 22.5043C21.5924 22.5043 21.1002 23 20.4041 23H3.59852C3.59852 23 2.90241 23 2.41019 22.5043C2.41019 22.5043 1.91797 22.0087 1.91797 21.3077V4.38462ZM3.59852 4.38462V21.3077H20.4041V4.38462H3.59852Z" fill="#9397A6"/>
<path d="M16.2027 1.84615V5.23077C16.2027 5.69809 16.5789 6.07692 17.043 6.07692C17.507 6.07692 17.8832 5.69809 17.8832 5.23077V1.84615C17.8832 1.37884 17.507 1 17.043 1C16.5789 1 16.2027 1.37884 16.2027 1.84615Z" fill="#9397A6"/>
<path d="M6.11936 1.84615V5.23077C6.11936 5.69809 6.49556 6.07692 6.95964 6.07692C7.42371 6.07692 7.79991 5.69809 7.79991 5.23077V1.84615C7.79991 1.37884 7.42371 1 6.95964 1C6.49556 1 6.11936 1.37884 6.11936 1.84615Z" fill="#9397A6"/>
<path d="M2.75825 9.46154H21.2444C21.7084 9.46154 22.0846 9.0827 22.0846 8.61538C22.0846 8.14807 21.7084 7.76923 21.2444 7.76923H2.75825C2.29417 7.76923 1.91797 8.14807 1.91797 8.61538C1.91797 9.0827 2.29417 9.46154 2.75825 9.46154Z" fill="#9397A6"/>
<path d="M10.8794 16.3356L8.79835 14.3477C8.64223 14.1985 8.43524 14.1154 8.22005 14.1154L8.1979 14.1157C7.97512 14.1216 7.7638 14.2164 7.61043 14.3792C7.46233 14.5364 7.37977 14.7448 7.37977 14.9615L7.38007 14.9838C7.38594 15.2082 7.48007 15.421 7.64176 15.5754L10.2991 18.1139C10.6225 18.4228 11.1292 18.4237 11.4537 18.1159L16.3588 13.462C16.521 13.3081 16.6158 13.0956 16.6225 12.8713L16.6228 12.8462L16.6227 12.8307C16.6189 12.6204 16.5374 12.419 16.3941 12.2659C16.2354 12.0962 16.0141 12 15.7826 12L15.7641 12.0002C15.5563 12.0048 15.3576 12.0868 15.2063 12.2303L10.8794 16.3356Z" fill="#9397A6"/>
</svg>
