<svg width="24" height="24" viewBox="0 0 24 24" fill="none" xmlns="http://www.w3.org/2000/svg">
<path fill-rule="evenodd" clip-rule="evenodd" d="M23.3698 11.7249C23.3698 11.7249 23.1728 11.9544 22.9023 12.0896L22.9012 12.0902L20.5851 13.2435C20.2195 13.4256 19.7754 13.2816 19.5862 12.9197L16.5862 7.18217L16.58 7.17006C16.3947 6.79958 16.5449 6.34907 16.9154 6.16383L19.2539 4.99458C19.2539 4.99458 19.8012 4.71561 20.3862 4.90323C20.3862 4.90323 20.9711 5.09085 21.2531 5.63431L23.5575 10.0464C23.5575 10.0464 23.6992 10.3143 23.7258 10.6161C23.7258 10.6161 23.7524 10.918 23.6598 11.2065C23.6598 11.2065 23.5671 11.495 23.3698 11.7249ZM22.2316 10.7479L19.9268 6.33513L18.2693 7.16392L20.5747 11.573L22.2316 10.7479Z" fill="#9397A6"/>
<path fill-rule="evenodd" clip-rule="evenodd" d="M7.41568 7.07854L4.41568 12.8254C4.22614 13.1885 3.78036 13.3324 3.41432 13.1486L1.0987 11.9861C1.0987 11.9861 0.833198 11.856 0.634834 11.6272C0.634834 11.6272 0.436469 11.3984 0.343111 11.1103C0.343111 11.1103 0.249753 10.8223 0.276204 10.5206C0.276204 10.5206 0.302655 10.2189 0.444721 9.95149L2.74853 5.5405C2.74853 5.5405 3.02938 5.00067 3.60835 4.8095C3.60835 4.8095 4.18732 4.61834 4.73547 4.88532L7.08623 6.06065C7.45671 6.24589 7.60688 6.69639 7.42164 7.06688L7.41568 7.07854ZM4.07866 6.23387L5.73277 7.06096L3.42757 11.4769L1.77387 10.6467L4.0781 6.23493L4.07866 6.23387Z" fill="#9397A6"/>
<path d="M4.21241 11.8872L9.34044 15.8903L9.35168 15.8992L14.7514 17.2491C14.7602 17.2501 14.769 17.2477 14.769 17.2477C14.7777 17.2453 14.7847 17.24 14.7847 17.24L18.1992 13.8255L19.6797 12.086C19.8086 11.9345 19.9924 11.8404 20.1907 11.8245C20.2107 11.8229 20.2307 11.8221 20.2508 11.8221C20.4289 11.8221 20.6012 11.8855 20.7369 12.0009C20.8884 12.1298 20.9824 12.3137 20.9984 12.5119C21 12.5314 21.0008 12.551 21.0008 12.5706L21.0008 12.5721C21.0008 12.7502 20.9374 12.9225 20.822 13.0582L19.322 14.8207C19.309 14.836 19.2953 14.8507 19.2811 14.8649L15.8311 18.3149C15.8252 18.3208 15.8192 18.3267 15.8131 18.3324C15.5352 18.5922 15.1685 18.6935 15.1685 18.6935C14.8018 18.7949 14.43 18.7146 14.43 18.7146C14.4221 18.7128 14.4142 18.711 14.4064 18.7091L8.96891 17.3497L8.94943 17.3445C8.64824 17.2606 8.41743 17.0727 8.41743 17.0727L3.28941 13.0696C3.10724 12.9274 3.00081 12.7093 3.00081 12.4783C3.00081 12.3326 3.04329 12.1899 3.12306 12.0679C3.13453 12.0504 3.14672 12.0333 3.15961 12.0168C3.30174 11.8348 3.51983 11.7283 3.75081 11.7283C3.89659 11.7283 4.0392 11.7708 4.16122 11.8506C4.17875 11.862 4.1958 11.8742 4.21241 11.8872Z" fill="#9397A6"/>
<path d="M13.4364 7.58466H17.2508C17.665 7.58466 18.0008 7.24888 18.0008 6.83466C18.0008 6.42045 17.665 6.08466 17.2508 6.08466H13.4352C13.1409 6.08363 12.8663 6.19642 12.8663 6.19642C12.5916 6.30922 12.3812 6.51865 12.3812 6.51865L8.70551 10.1849C8.47165 10.4249 8.36075 10.7296 8.36075 10.7296C8.24986 11.0343 8.27391 11.3577 8.27391 11.3577C8.29796 11.6811 8.45272 11.9661 8.45272 11.9661C8.60748 12.2511 8.86563 12.4473 8.86563 12.4473L9.37226 12.832C10.3775 13.5823 11.6258 13.5823 11.6258 13.5823C12.874 13.5823 13.8744 12.8357 13.8744 12.8357L14.6326 12.267L18.3095 14.9411C18.4379 15.0344 18.5923 15.0847 18.7508 15.0847C18.7641 15.0847 18.7774 15.0843 18.7906 15.0836C19.0163 15.0716 19.2245 14.9585 19.3573 14.7758C19.4506 14.6476 19.5008 14.4932 19.5008 14.3347C19.5008 14.3214 19.5004 14.3081 19.4997 14.2948C19.4877 14.0692 19.3747 13.861 19.1919 13.7281L15.0669 10.7281C14.8006 10.5345 14.4392 10.5371 14.1758 10.7347L12.9772 11.6336C12.376 12.0823 11.6258 12.0823 11.6258 12.0823C10.8756 12.0823 10.2793 11.6373 10.2793 11.6373L9.77346 11.2532C9.77185 11.252 9.77089 11.2503 9.77089 11.2503C9.76993 11.2485 9.76978 11.2465 9.76978 11.2465C9.76963 11.2445 9.77032 11.2426 9.77032 11.2426C9.76994 11.2423 9.76608 11.2457 9.76608 11.2457L13.4364 7.58466Z" fill="#9397A6"/>
<path d="M15.0659 7.51764C15.1633 7.56181 15.2689 7.58466 15.3758 7.58466C15.3886 7.58466 15.4014 7.58433 15.4142 7.58367C15.6943 7.56932 15.9429 7.39993 16.0588 7.14456C16.103 7.04722 16.1258 6.94156 16.1258 6.83466L16.1257 6.82233C16.1243 6.73638 16.1081 6.65132 16.0779 6.57086C16.0079 6.38466 15.8669 6.23387 15.6857 6.15168L12.442 4.67981C11.9391 4.45253 11.4097 4.60434 11.4097 4.60434L6.59673 6.01163C6.40566 6.0675 6.24474 6.19688 6.14922 6.37135C6.08876 6.48178 6.05707 6.60564 6.05707 6.73153L6.05716 6.74348C6.05823 6.81071 6.06834 6.87749 6.08721 6.94202C6.18071 7.26178 6.47392 7.48153 6.80707 7.48153L6.81135 7.48152C6.88115 7.48112 6.95056 7.47098 7.01755 7.45139L11.8232 6.04623L15.0659 7.51764Z" fill="#9397A6"/>
<path d="M5.7422 16.6836C5.60581 16.5654 5.43134 16.5002 5.25081 16.5002C5.23306 16.5002 5.21533 16.5009 5.19763 16.5021C4.99921 16.5162 4.81453 16.6086 4.68421 16.7589C4.56593 16.8952 4.50081 17.0697 4.50081 17.2502C4.50081 17.268 4.50144 17.2857 4.5027 17.3034C4.5168 17.5018 4.60915 17.6865 4.75942 17.8168L6.87817 19.6543C7.14483 19.8927 7.50301 19.9762 7.50301 19.9762L10.3172 20.6868C10.3772 20.702 10.4389 20.7096 10.5008 20.7096C10.5087 20.7096 10.5165 20.7095 10.5244 20.7092C10.8589 20.6987 11.146 20.4678 11.228 20.1432C11.2431 20.0832 11.2508 20.0215 11.2508 19.9596C11.2508 19.9481 11.2505 19.9366 11.25 19.9251C11.2443 19.8016 11.2082 19.6814 11.1448 19.5753C11.0429 19.4044 10.8773 19.2811 10.6844 19.2324L7.86254 18.5199L7.85836 18.5189L5.7422 16.6836Z" fill="#9397A6"/>
</svg>
