<svg width="24" height="24" viewBox="0 0 24 24" fill="none" xmlns="http://www.w3.org/2000/svg">
<path d="M4.0375 2H2.27778C1.84822 2 1.5 2.34822 1.5 2.77778C1.5 3.20733 1.84822 3.55556 2.27778 3.55556H4.03006L6.74311 18.4725C6.81037 18.8423 7.13246 19.1111 7.50833 19.1111H18.6111C19.0407 19.1111 19.3889 18.7629 19.3889 18.3333C19.3889 17.9038 19.0407 17.5556 18.6111 17.5556H8.15741L5.56162 3.28337C5.4634 2.73065 5.03485 2.36803 5.03485 2.36803C4.6063 2.00541 4.0375 2 4.0375 2Z" fill="#9397A6"/>
<path fill-rule="evenodd" clip-rule="evenodd" d="M8.5 17.5556C8.5 17.5556 9.62758 17.5556 10.4249 18.3529C10.4249 18.3529 11.2222 19.1502 11.2222 20.2778C11.2222 20.2778 11.2222 21.4054 10.4249 22.2027C10.4249 22.2027 9.62758 23 8.5 23C8.5 23 7.37242 23 6.5751 22.2027C6.5751 22.2027 5.77778 21.4054 5.77778 20.2778C5.77778 20.2778 5.77778 19.1502 6.5751 18.3529C6.5751 18.3529 7.37242 17.5556 8.5 17.5556ZM8.5 19.1111C8.5 19.1111 8.01675 19.1111 7.67504 19.4528C7.67504 19.4528 7.33333 19.7945 7.33333 20.2778C7.33333 20.2778 7.33333 20.761 7.67504 21.1027C7.67504 21.1027 8.01675 21.4444 8.5 21.4444C8.5 21.4444 8.98325 21.4444 9.32496 21.1027C9.32496 21.1027 9.66667 20.761 9.66667 20.2778C9.66667 20.2778 9.66667 19.7945 9.32496 19.4528C9.32496 19.4528 8.98325 19.1111 8.5 19.1111Z" fill="#9397A6"/>
<path fill-rule="evenodd" clip-rule="evenodd" d="M18.6111 17.5556C18.6111 17.5556 19.7387 17.5556 20.536 18.3529C20.536 18.3529 21.3333 19.1502 21.3333 20.2778C21.3333 20.2778 21.3333 21.4054 20.536 22.2027C20.536 22.2027 19.7387 23 18.6111 23C18.6111 23 17.4835 23 16.6862 22.2027C16.6862 22.2027 15.8889 21.4054 15.8889 20.2778C15.8889 20.2778 15.8889 19.1502 16.6862 18.3529C16.6862 18.3529 17.4835 17.5556 18.6111 17.5556ZM18.6111 19.1111C18.6111 19.1111 18.1279 19.1111 17.7862 19.4528C17.7862 19.4528 17.4444 19.7945 17.4444 20.2778C17.4444 20.2778 17.4444 20.761 17.7862 21.1027C17.7862 21.1027 18.1279 21.4444 18.6111 21.4444C18.6111 21.4444 19.0944 21.4444 19.4361 21.1027C19.4361 21.1027 19.7778 20.761 19.7778 20.2778C19.7778 20.2778 19.7778 19.7945 19.4361 19.4528C19.4361 19.4528 19.0944 19.1111 18.6111 19.1111Z" fill="#9397A6"/>
<path d="M21.7222 5.88889H5.38889C4.95933 5.88889 4.61111 6.23711 4.61111 6.66667C4.61111 7.09622 4.95933 7.44444 5.38889 7.44444H20.7898L19.771 13.0313C19.7212 13.3092 19.5065 13.4883 19.5065 13.4883C19.2918 13.6675 19.0121 13.6667 19.0121 13.6667L6.79861 13.6667C6.36906 13.6667 6.02083 14.0149 6.02083 14.4444C6.02083 14.874 6.36906 15.2222 6.79861 15.2222L19.0074 15.2222C19.8534 15.2248 20.5031 14.6827 20.5031 14.6827C21.1527 14.1407 21.3013 13.3104 21.3013 13.3104L22.4874 6.8062C22.4958 6.76017 22.5 6.71346 22.5 6.66667C22.5 6.23711 22.1518 5.88889 21.7222 5.88889Z" fill="#9397A6"/>
</svg>
