<svg width="24" height="24" viewBox="0 0 24 24" fill="none" xmlns="http://www.w3.org/2000/svg">
<path d="M2.84589 19.6425V3.83213C2.84589 3.37256 2.47334 3 2.01377 3C1.5542 3 1.18164 3.37256 1.18164 3.83213V20.4747C1.18164 20.9342 1.5542 21.3068 2.01377 21.3068H21.9848C22.4444 21.3068 22.8169 20.9342 22.8169 20.4747C22.8169 20.0151 22.4444 19.6425 21.9848 19.6425H2.84589Z" fill="#9397A6"/>
<path d="M1.42568 16.5574C1.26962 16.7135 1.18164 16.9255 1.18164 17.1462C1.18164 17.1595 1.18196 17.1728 1.1826 17.1861C1.19254 17.3928 1.27909 17.5883 1.42536 17.7346C1.58142 17.8906 1.79307 17.9783 2.01377 17.9783C2.23446 17.9783 2.44612 17.8906 2.60217 17.7346L8.67078 11.6659L11.4109 14.4061C11.7359 14.731 12.2627 14.731 12.5877 14.4061L20.909 6.08478C21.065 5.92873 21.1527 5.71707 21.1527 5.49638C21.1527 5.27569 21.065 5.06403 20.909 4.90798C20.7529 4.75192 20.5413 4.66425 20.3206 4.66425C20.0999 4.66425 19.8882 4.75192 19.7322 4.90798L11.9993 12.6408L9.25918 9.90074C9.10313 9.74468 8.89148 9.65701 8.67078 9.65701C8.45009 9.65701 8.23843 9.74469 8.08238 9.90074L1.42568 16.5574Z" fill="#9397A6"/>
<path d="M20.3206 4.66425H16.1599C15.7004 4.66425 15.3278 5.03681 15.3278 5.49638C15.3278 5.95595 15.7004 6.32851 16.1599 6.32851H19.4884V9.65701C19.4884 10.1166 19.861 10.4891 20.3206 10.4891C20.7801 10.4891 21.1527 10.1166 21.1527 9.65701V5.49638C21.1527 5.03681 20.7801 4.66425 20.3206 4.66425Z" fill="#9397A6"/>
</svg>
