<svg width="24" height="24" viewBox="0 0 24 24" fill="none" xmlns="http://www.w3.org/2000/svg">
<path fill-rule="evenodd" clip-rule="evenodd" d="M11.999 7.06269C11.999 7.06269 14.1294 7.06269 15.6358 8.56913C15.6358 8.56913 17.1423 10.0756 17.1423 12.206C17.1423 12.206 17.1423 14.3364 15.6358 15.8429C15.6358 15.8429 14.1294 17.3493 11.999 17.3493C11.999 17.3493 9.86854 17.3493 8.3621 15.8429C8.3621 15.8429 6.85566 14.3364 6.85566 12.206C6.85566 12.206 6.85566 10.0756 8.3621 8.56913C8.3621 8.56913 9.86854 7.06269 11.999 7.06269ZM11.999 8.53221C11.999 8.53221 10.4772 8.53221 9.4012 9.60823C9.4012 9.60823 8.32518 10.6843 8.32518 12.206C8.32518 12.206 8.32518 13.7277 9.4012 14.8038C9.4012 14.8038 10.4772 15.8798 11.999 15.8798C11.999 15.8798 13.5207 15.8798 14.5967 14.8038C14.5967 14.8038 15.6727 13.7277 15.6727 12.206C15.6727 12.206 15.6727 10.6843 14.5967 9.60823C14.5967 9.60823 13.5207 8.53221 11.999 8.53221Z" fill="#9397A6"/>
<path fill-rule="evenodd" clip-rule="evenodd" d="M17.4839 3.81767L17.8057 6.07031C17.8057 6.07031 17.9744 6.23259 18.1347 6.39926L20.3872 6.72104C20.6108 6.75298 20.8073 6.88601 20.9201 7.08177C20.9201 7.08177 21.5832 8.23335 21.9295 9.51629C21.9885 9.73473 21.9435 9.96816 21.8076 10.1491L20.4392 11.9708C20.4392 11.9708 20.4467 12.2381 20.4422 12.4451L21.8076 14.2629C21.9433 14.4435 21.9883 14.6765 21.9297 14.8947C21.9297 14.8947 21.5847 16.1792 20.9196 17.331C20.8068 17.5263 20.6105 17.659 20.3872 17.6909L18.1293 18.0134C18.1293 18.0134 17.9475 18.2002 17.8061 18.3388L17.4839 20.5943C17.4519 20.8179 17.3189 21.0144 17.1231 21.1271C17.1231 21.1271 15.9715 21.7902 14.6886 22.1365C14.4702 22.1955 14.2367 22.1505 14.0558 22.0146L12.2431 20.6531C12.2431 20.6531 11.9989 20.663 11.7547 20.6531L9.94204 22.0146C9.76139 22.1503 9.52836 22.1954 9.31016 22.1368C9.31016 22.1368 8.02568 21.7918 6.87393 21.1266C6.6786 21.0138 6.54591 20.8176 6.51401 20.5943L6.19163 18.3376C6.19163 18.3376 6.02735 18.1776 5.86729 18.0133L3.61064 17.6909C3.38702 17.6589 3.19052 17.5259 3.0778 17.3302C3.0778 17.3302 2.41471 16.1786 2.06837 14.8956C2.0094 14.6772 2.05436 14.4438 2.19025 14.2629L3.55864 12.4411C3.55864 12.4411 3.5512 12.1738 3.55563 11.9668L2.19025 10.1491C2.05456 9.96842 2.00952 9.73539 2.06813 9.5172C2.06813 9.5172 2.41313 8.23271 3.07827 7.08096C3.19108 6.88563 3.38734 6.75294 3.61064 6.72104L5.86729 6.39866C5.86729 6.39866 6.02734 6.23438 6.19163 6.07432L6.51401 3.81767C6.54595 3.59405 6.67898 3.39755 6.87474 3.28484C6.87474 3.28484 8.02633 2.62174 9.30926 2.2754C9.5277 2.21643 9.76113 2.26139 9.94204 2.39728L11.7547 3.75886C11.7547 3.75886 11.9989 3.74897 12.2431 3.75886L14.0558 2.39728C14.2365 2.26159 14.4695 2.21655 14.6877 2.27516C14.6877 2.27516 15.9722 2.62016 17.1239 3.2853C17.3193 3.39811 17.452 3.59438 17.4839 3.81767ZM16.3873 6.53285L16.0809 4.38807C16.0809 4.38807 15.3899 4.02529 14.645 3.79263L12.9086 5.09687C12.7636 5.20582 12.5833 5.25726 12.4026 5.24128C12.4026 5.24128 11.9989 5.20559 11.5952 5.24128C11.4145 5.25726 11.2343 5.20582 11.0892 5.09687L9.35328 3.79293C9.35328 3.79293 8.60838 4.02635 7.91688 4.38857L7.61056 6.53285C7.58709 6.69715 7.50868 6.84866 7.38811 6.96271C7.38811 6.96271 7.06311 7.27014 6.75568 7.59514C6.64163 7.71571 6.49012 7.79412 6.32582 7.81759L4.18104 8.12399C4.18104 8.12399 3.81826 8.81497 3.58559 9.5599L4.88984 11.2963C4.99876 11.4413 5.05021 11.6215 5.03427 11.8021C5.03427 11.8021 5.01098 12.066 5.0364 12.642C5.0439 12.8121 4.9921 12.9795 4.88984 13.1157L3.5859 14.8516C3.5859 14.8516 3.81932 15.5965 4.18154 16.288L6.32582 16.5943C6.49012 16.6178 6.64163 16.6962 6.75568 16.8168C6.75568 16.8168 7.06312 17.1418 7.38811 17.4492C7.50868 17.5633 7.58709 17.7148 7.61056 17.8791L7.91696 20.0239C7.91696 20.0239 8.60795 20.3866 9.35287 20.6193L11.0892 19.3151C11.2343 19.2061 11.4145 19.1547 11.5952 19.1706C11.5952 19.1706 11.9989 19.2063 12.4026 19.1706C12.5833 19.1547 12.7636 19.2061 12.9086 19.3151L14.6446 20.619C14.6446 20.619 15.3895 20.3856 16.081 20.0234L16.3873 17.8791C16.4113 17.7113 16.4925 17.557 16.6172 17.4423C16.6172 17.4423 16.8299 17.2465 17.2457 16.8131C17.3594 16.6946 17.5095 16.6176 17.672 16.5943L19.8168 16.2879C19.8168 16.2879 20.1796 15.597 20.4123 14.852L19.108 13.1157C18.9991 12.9706 18.9477 12.7905 18.9636 12.6098C18.9636 12.6098 18.9869 12.3459 18.9615 11.7699C18.954 11.5998 19.0058 11.4324 19.108 11.2963L20.412 9.56031C20.412 9.56031 20.1785 8.8154 19.8163 8.12391L17.672 7.81759C17.5041 7.7936 17.3497 7.71226 17.2349 7.58737C17.2349 7.58737 16.9434 7.27009 16.6169 6.96938C16.4924 6.85467 16.4113 6.70047 16.3873 6.53285Z" fill="#9397A6"/>
</svg>
