<svg width="24" height="24" viewBox="0 0 24 24" fill="none" xmlns="http://www.w3.org/2000/svg">
<path fill-rule="evenodd" clip-rule="evenodd" d="M12.5216 1.30469C12.5216 1.30469 14.5909 1.30469 16.482 2.10453C16.482 2.10453 18.3079 2.87683 19.7156 4.28456C19.7156 4.28456 21.1233 5.69229 21.8956 7.51821C21.8956 7.51821 22.6955 9.40925 22.6955 11.4786C22.6955 11.4786 22.6955 13.5479 21.8956 15.439C21.8956 15.439 21.1233 17.2649 19.7156 18.6726C19.7156 18.6726 18.3079 20.0804 16.482 20.8527C16.482 20.8527 14.5909 21.6525 12.5216 21.6525C12.5216 21.6525 10.4522 21.6525 8.56118 20.8527C8.56118 20.8527 6.73526 20.0804 5.32753 18.6726C5.32753 18.6726 3.91979 17.2649 3.14749 15.439C3.14749 15.439 2.34766 13.548 2.34766 11.4786C2.34766 11.4786 2.34766 9.40924 3.14749 7.51821C3.14749 7.51821 3.9198 5.69229 5.32753 4.28456C5.32753 4.28456 6.73526 2.87683 8.56118 2.10452C8.56118 2.10452 10.4522 1.30469 12.5216 1.30469ZM12.5216 2.8699C12.5216 2.8699 10.7696 2.8699 9.17092 3.5461C9.17092 3.5461 7.62616 4.19947 6.4343 5.39133C6.4343 5.39133 5.24244 6.58319 4.58907 8.12795C4.58907 8.12795 3.91287 9.72665 3.91287 11.4786C3.91287 11.4786 3.91287 13.2306 4.58907 14.8293C4.58907 14.8293 5.24244 16.374 6.4343 17.5659C6.4343 17.5659 7.62616 18.7577 9.17092 19.4111C9.17092 19.4111 10.7696 20.0873 12.5216 20.0873C12.5216 20.0873 14.2735 20.0873 15.8722 19.4111C15.8722 19.4111 17.417 18.7577 18.6088 17.5659C18.6088 17.5659 19.8007 16.374 20.4541 14.8293C20.4541 14.8293 21.1303 13.2305 21.1303 11.4786C21.1303 11.4786 21.1303 9.72665 20.4541 8.12795C20.4541 8.12795 19.8007 6.58319 18.6088 5.39133C18.6088 5.39133 17.417 4.19947 15.8722 3.5461C15.8722 3.5461 14.2735 2.8699 12.5216 2.8699Z" fill="#9397A6"/>
<path d="M12.5216 16.9569H13.3042C13.7364 16.9569 14.0868 16.6065 14.0868 16.1743C14.0868 15.742 13.7364 15.3916 13.3042 15.3916V10.696C13.3042 10.2638 12.9538 9.91338 12.5216 9.91338H11.739C11.3067 9.91338 10.9564 10.2638 10.9564 10.696C10.9564 11.1282 11.3067 11.4786 11.739 11.4786V16.1743C11.739 16.6065 12.0893 16.9569 12.5216 16.9569Z" fill="#9397A6"/>
<path d="M13.4998 7.17425C13.4998 7.82259 12.9742 8.34817 12.3259 8.34817C11.6776 8.34817 11.152 7.82259 11.152 7.17425C11.152 6.52592 11.6776 6.00034 12.3259 6.00034C12.9742 6.00034 13.4998 6.52592 13.4998 7.17425Z" fill="#9397A6"/>
</svg>
