<svg width="25" height="24" viewBox="0 0 25 24" fill="none" xmlns="http://www.w3.org/2000/svg">
<path fill-rule="evenodd" clip-rule="evenodd" d="M9.86308 1.49109C8.47005 0 6.50001 0 6.50001 0C4.52997 0 3.13694 1.49109 3.13694 1.49109C1.74391 2.98219 1.74391 5.09092 1.74391 5.09092C1.74391 7.19964 3.13694 8.69074 3.13694 8.69074C3.29928 8.86451 3.46946 9.01803 3.64345 9.15366C3.06839 9.41276 2.7156 9.64861 2.7156 9.64861C0.979141 10.8095 0.0806888 12.7785 0.0806888 12.7785C0.0277646 12.8946 0 13.0225 0 13.1515L6.75325e-05 13.1626C0.00116424 13.2527 0.0156804 13.3421 0.0430701 13.4274C0.111425 13.6402 0.255958 13.8152 0.444872 13.914C0.55319 13.9706 0.672142 14 0.792683 14L0.810884 13.9998C1.10719 13.9925 1.37494 13.8089 1.50498 13.5238C2.20407 11.9913 3.55541 11.0879 3.55541 11.0879C4.90675 10.1845 6.5 10.1845 6.5 10.1845C8.09325 10.1845 9.44459 11.0879 9.44459 11.0879C10.7953 11.9909 11.4943 13.5223 11.4943 13.5223C11.5762 13.7018 11.7128 13.8414 11.8765 13.9222L6.77772 18.3228C6.7648 18.334 6.75229 18.3456 6.74021 18.3577C5.92128 19.1766 5.92128 20.3347 5.92128 20.3347C5.92128 21.4929 6.74021 22.3118 6.74021 22.3118C7.55915 23.1308 8.7173 23.1308 8.7173 23.1308C9.87545 23.1308 10.6944 22.3118 10.6944 22.3118C10.7065 22.2998 10.7181 22.2872 10.7292 22.2743L15.2697 17.0136C16.8042 17.7016 18.515 17.5072 18.515 17.5072C20.5146 17.2799 22.0089 15.9321 22.0089 15.9321C23.5032 14.5842 23.9347 12.6186 23.9347 12.6186C24.3663 10.653 23.574 8.80311 23.574 8.80311C23.5389 8.72116 23.4884 8.64669 23.4253 8.58372C23.2942 8.45296 23.1166 8.37963 22.9314 8.37985C22.7463 8.38007 22.5688 8.45383 22.4381 8.5849L19.0465 11.9846L17.3992 11.6528L17.0674 10.0056L20.4671 6.61398C20.5303 6.55101 20.5807 6.47654 20.6158 6.39459C20.7676 6.04018 20.6033 5.62982 20.2489 5.47804C18.399 4.68578 16.4335 5.11731 16.4335 5.11731C14.4679 5.54885 13.12 7.04316 13.12 7.04316C11.7721 8.53748 11.5449 10.537 11.5449 10.537C11.5371 10.6057 11.5307 10.674 11.5256 10.742C10.8633 10.0358 10.2844 9.64861 10.2844 9.64861C9.97886 9.44435 9.66369 9.27602 9.35174 9.13731C9.67963 8.8871 9.86308 8.69074 9.86308 8.69074C11.2561 7.19964 11.2561 5.09092 11.2561 5.09092C11.2561 2.98219 9.86308 1.49109 9.86308 1.49109ZM4.25796 2.69104C5.18665 1.69697 6.50001 1.69697 6.50001 1.69697C7.81337 1.69697 8.74205 2.69104 8.74205 2.69104C9.67074 3.6851 9.67074 5.09092 9.67074 5.09092C9.67074 6.49674 8.74205 7.4908 8.74205 7.4908C7.81337 8.48486 6.50001 8.48486 6.50001 8.48486C5.18665 8.48486 4.25796 7.4908 4.25796 7.4908C3.32928 6.49673 3.32928 5.09092 3.32928 5.09092C3.32928 3.6851 4.25796 2.69104 4.25796 2.69104ZM15.4364 15.5366C16.8033 16.2965 18.3574 16.1199 18.3574 16.1199C19.9119 15.9432 21.0737 14.8953 21.0737 14.8953C22.2355 13.8474 22.571 12.3192 22.571 12.3192C22.7868 11.3362 22.609 10.3905 22.609 10.3905L19.7702 13.236C19.6049 13.4017 19.3676 13.4735 19.1382 13.4273L16.6686 12.9299C16.3931 12.8744 16.1776 12.659 16.1221 12.3834L15.6247 9.91388C15.5785 9.68444 15.6504 9.44712 15.8161 9.28182L18.6616 6.44307C17.7158 6.26522 16.7329 6.48102 16.7329 6.48102C15.2047 6.81653 14.1567 7.97832 14.1567 7.97832C13.1088 9.1401 12.9321 10.6947 12.9321 10.6947C12.7554 12.2492 13.516 13.6166 13.516 13.6166C13.6768 13.9058 13.6125 14.2682 13.362 14.4844L7.71109 19.3615C7.31747 19.7666 7.31747 20.3347 7.31747 20.3347C7.31747 20.9146 7.72747 21.3246 7.72747 21.3246C8.13747 21.7346 8.7173 21.7346 8.7173 21.7346C9.28542 21.7346 9.6905 21.341 9.6905 21.341L14.5677 15.69C14.6566 15.587 14.7738 15.5122 14.9047 15.4748C15.0828 15.4241 15.2737 15.4461 15.4355 15.5361L15.4364 15.5366Z" fill="#9397A6"/>
</svg>
