<svg xmlns="http://www.w3.org/2000/svg" width="16" height="16" fill="#002CFB"><path fill-rule="evenodd" d="M8 2.67a5.333 5.333 0 0 0-4.745 7.769c.264.514.37 1.16.136 1.776l-.425 1.12h5.035A5.333 5.333 0 1 0 8 2.67ZM1.335 8.002a6.667 6.667 0 1 1 6.667 6.666H2.483a1 1 0 0 1-.935-1.354l.624.236-.624-.236.596-1.572c.072-.19.056-.44-.075-.694a6.641 6.641 0 0 1-.735-3.046Zm9.805-1.805c.26.26.26.682 0 .943L8.04 10.238a1 1 0 0 1-1.414 0L4.863 8.474a.667.667 0 1 1 .942-.943L7.334 9.06l2.862-2.862c.26-.26.682-.26.943 0Z" clip-rule="evenodd"></path></svg>