<svg width="16" height="16" viewBox="0 0 16 16" fill="none" xmlns="http://www.w3.org/2000/svg">
<path fill-rule="evenodd" clip-rule="evenodd" d="M5.30021 2.70312C5.30021 2.70312 6.94677 2.70312 8.11107 3.86742C8.11107 3.86742 9.27536 5.03172 9.27536 6.67828C9.27536 6.67828 9.27536 8.32484 8.11107 9.48914C8.11107 9.48914 6.94677 10.6534 5.30021 10.6534C5.30021 10.6534 3.65364 10.6534 2.48935 9.48914C2.48935 9.48914 1.32505 8.32484 1.32505 6.67828C1.32505 6.67828 1.32505 5.03172 2.48935 3.86742C2.48935 3.86742 3.65364 2.70312 5.30021 2.70312ZM5.30021 3.76317C5.30021 3.76317 4.09273 3.76317 3.23891 4.61698C3.23891 4.61698 2.38509 5.4708 2.38509 6.67828C2.38509 6.67828 2.38509 7.88576 3.23891 8.73958C3.23891 8.73958 4.09273 9.59339 5.30021 9.59339C5.30021 9.59339 6.50769 9.59339 7.3615 8.73958C7.3615 8.73958 8.21532 7.88576 8.21532 6.67828C8.21532 6.67828 8.21532 5.4708 7.3615 4.61698C7.3615 4.61698 6.50769 3.76317 5.30021 3.76317Z" fill="#121922"/>
<path d="M12.7611 8.73958C11.9073 9.59339 10.6998 9.59339 10.6998 9.59339C10.4071 9.59339 10.1698 9.83069 10.1698 10.1234C10.1698 10.4161 10.4071 10.6534 10.6998 10.6534C12.3463 10.6534 13.5106 9.48914 13.5106 9.48914C14.6749 8.32484 14.6749 6.67828 14.6749 6.67828C14.6749 5.03172 13.5106 3.86742 13.5106 3.86742C12.3464 2.70312 10.6998 2.70312 10.6998 2.70312C10.1532 2.70479 9.6272 2.8474 9.6272 2.8474C9.39625 2.91004 9.2356 3.11974 9.2356 3.35903L9.23563 3.36447C9.2361 3.40951 9.2423 3.4543 9.25408 3.49776C9.31672 3.72871 9.52633 3.88905 9.76562 3.88905L9.77107 3.88902C9.81611 3.88856 9.8609 3.88235 9.90436 3.87057C10.2957 3.76444 10.6998 3.76317 10.6998 3.76317C11.9073 3.76317 12.7611 4.61698 12.7611 4.61698C13.6149 5.4708 13.6149 6.67828 13.6149 6.67828C13.6149 7.88576 12.7611 8.73958 12.7611 8.73958Z" fill="#121922"/>
<path d="M7.7436 11.25C8.89241 11.8468 9.63674 12.906 9.63674 12.906C9.73598 13.0472 9.89778 13.1313 10.0704 13.1313C10.0763 13.1313 10.0822 13.1312 10.0882 13.131C10.1911 13.1275 10.2908 13.0941 10.3751 13.0349C10.4901 12.9541 10.5683 12.8309 10.5925 12.6924C10.5978 12.6623 10.6004 12.6318 10.6004 12.6012L10.6003 12.5898C10.598 12.4846 10.5645 12.3825 10.504 12.2965C9.61085 11.0255 8.23228 10.3093 8.23228 10.3093C6.8537 9.59314 5.30021 9.59339 5.30021 9.59339C3.74671 9.59339 2.36814 10.3093 2.36814 10.3093C0.989636 11.0254 0.096462 12.2964 0.096462 12.2964C0.0337475 12.3856 0 12.4922 0 12.6012C3.15917e-08 12.6135 0.000425351 12.6258 0.00127526 12.638C0.012345 12.7973 0.0946372 12.9431 0.22528 13.0349C0.314524 13.0976 0.420945 13.1313 0.530021 13.1313L0.531608 13.1313C0.561633 13.1312 0.591597 13.1285 0.621176 13.1234C0.759652 13.0992 0.882852 13.021 0.963674 12.906C1.708 11.8468 2.85682 11.25 2.85682 11.25C4.00563 10.6532 5.30021 10.6534 5.30021 10.6534C6.59479 10.6534 7.7436 11.25 7.7436 11.25Z" fill="#121922"/>
<path d="M15.0359 12.9054C15.1351 13.0467 15.2973 13.1313 15.47 13.1313C15.4758 13.1313 15.4816 13.1312 15.4875 13.131C15.5904 13.1276 15.6902 13.0943 15.7745 13.0351C15.9158 12.9359 16 12.774 16 12.6013C16 12.5954 15.9999 12.5896 15.9997 12.5838C15.9963 12.4808 15.963 12.3811 15.9038 12.2968C15.9034 12.2962 15.9031 12.2958 15.9031 12.2958C15.0106 11.0247 13.6322 10.3087 13.6322 10.3087C12.2534 9.59251 10.6998 9.59339 10.6998 9.59339C10.5592 9.59348 10.4241 9.64941 10.3248 9.74887C10.2255 9.84825 10.1698 9.98296 10.1698 10.1234C10.1698 10.4161 10.4071 10.6534 10.6998 10.6534C11.9944 10.6526 13.1436 11.2494 13.1436 11.2494C14.2922 11.846 15.0359 12.9054 15.0359 12.9054Z" fill="#121922"/>
</svg>
