<svg width="16" height="16" viewBox="0 0 16 16" fill="none" xmlns="http://www.w3.org/2000/svg">
<path fill-rule="evenodd" clip-rule="evenodd" d="M13.6069 14.6846C13.6069 14.6846 13.2915 15 12.8454 15H3.1531C3.1531 15 2.70702 15 2.3916 14.6846C2.3916 14.6846 2.07617 14.3692 2.07617 13.9231V2.07692C2.07617 2.07692 2.07617 1.63085 2.3916 1.31542C2.3916 1.31542 2.70702 1 3.1531 1H9.61463C9.75744 1 9.8944 1.05673 9.99538 1.15771L13.7646 4.92694C13.8656 5.02792 13.9223 5.16488 13.9223 5.30769V13.9231C13.9223 13.9231 13.9223 14.3692 13.6069 14.6846ZM12.8454 13.9231V5.53073L9.3916 2.07692H3.1531V13.9231H12.8454Z" fill="#1C1C1C"/>
<path d="M9.61463 5.84615H13.3839C13.6812 5.84615 13.9223 5.60508 13.9223 5.30769C13.9223 5.01031 13.6812 4.76923 13.3839 4.76923H10.1531V1.53846C10.1531 1.24108 9.91202 1 9.61463 1C9.31725 1 9.07617 1.24108 9.07617 1.53846V5.30769C9.07617 5.60508 9.31725 5.84615 9.61463 5.84615Z" fill="#1C1C1C"/>
<path d="M6.38386 10.1538H9.61463C9.91202 10.1538 10.1531 9.91277 10.1531 9.61539C10.1531 9.318 9.91202 9.07692 9.61463 9.07692H6.38386C6.08648 9.07692 5.8454 9.318 5.8454 9.61539C5.8454 9.91277 6.08648 10.1538 6.38386 10.1538Z" fill="#1C1C1C"/>
<path d="M7.46079 8V11.2308C7.46079 11.5282 7.70186 11.7692 7.99925 11.7692C8.29663 11.7692 8.53771 11.5282 8.53771 11.2308V8C8.53771 7.70262 8.29663 7.46154 7.99925 7.46154C7.70186 7.46154 7.46079 7.70262 7.46079 8Z" fill="#1C1C1C"/>
</svg>
