<svg width="24" height="24" viewBox="0 0 24 24" fill="none" xmlns="http://www.w3.org/2000/svg">
<path fill-rule="evenodd" clip-rule="evenodd" d="M6 5.5C4.89543 5.5 4 6.39543 4 7.5V16.5C4 17.6046 4.89543 18.5 6 18.5H17.7143C18.8189 18.5 19.7143 17.6046 19.7143 16.5V15.6667H15.5714C13.565 15.6667 12 13.9905 12 12C12 10.0095 13.565 8.33333 15.5714 8.33333H19.7143V7.5C19.7143 6.39543 18.8189 5.5 17.7143 5.5H6ZM21.7143 8.33333V7.5C21.7143 5.29086 19.9234 3.5 17.7143 3.5H6C3.79086 3.5 2 5.29086 2 7.5V16.5C2 18.7091 3.79086 20.5 6 20.5H17.7143C19.9234 20.5 21.7143 18.7091 21.7143 16.5V15.6667H21.9109C22.5463 15.6667 23 15.143 23 14.5743V9.42574C23 8.857 22.5463 8.33333 21.9109 8.33333H21.7143ZM21 10.3333H15.5714C14.7375 10.3333 14 11.0449 14 12C14 12.9551 14.7375 13.6667 15.5714 13.6667H21V10.3333Z" fill="#ADBFDF"/>
</svg>
