<svg width="16" height="16" viewBox="0 0 16 16" fill="none" xmlns="http://www.w3.org/2000/svg">
<path d="M12.5234 2.70521L2.70521 12.5234C2.60292 12.6257 2.54545 12.7644 2.54545 12.9091C2.54545 13.0538 2.60292 13.1925 2.70521 13.2948C2.80751 13.3971 2.94625 13.4545 3.09091 13.4545C3.23557 13.4545 3.37431 13.3971 3.4766 13.2948L13.2948 3.4766C13.3971 3.37431 13.4545 3.23557 13.4545 3.09091C13.4545 2.94625 13.3971 2.80751 13.2948 2.70521C13.1925 2.60292 13.0538 2.54545 12.9091 2.54545C12.7644 2.54545 12.6257 2.60292 12.5234 2.70521Z" fill="#ADBFDF"/>
<path fill-rule="evenodd" clip-rule="evenodd" d="M4.45455 2C4.45455 2 5.47125 2 6.19017 2.71892C6.19017 2.71892 6.90909 3.43784 6.90909 4.45455C6.90909 4.45455 6.90909 5.47125 6.19017 6.19017C6.19017 6.19017 5.47125 6.90909 4.45455 6.90909C4.45455 6.90909 3.43784 6.90909 2.71892 6.19017C2.71892 6.19017 2 5.47125 2 4.45455C2 4.45455 2 3.43784 2.71892 2.71892C2.71892 2.71892 3.43784 2 4.45455 2ZM4.45455 3.09091C4.45455 3.09091 3.88971 3.09091 3.49031 3.49031C3.49031 3.49031 3.09091 3.88971 3.09091 4.45455C3.09091 4.45455 3.09091 5.01938 3.49031 5.41878C3.49031 5.41878 3.88971 5.81818 4.45455 5.81818C4.45455 5.81818 5.01938 5.81818 5.41878 5.41878C5.41878 5.41878 5.81818 5.01938 5.81818 4.45455C5.81818 4.45455 5.81818 3.88971 5.41878 3.49031C5.41878 3.49031 5.01938 3.09091 4.45455 3.09091Z" fill="#ADBFDF"/>
<path fill-rule="evenodd" clip-rule="evenodd" d="M11.5455 9.09091C11.5455 9.09091 12.5622 9.09091 13.2811 9.80983C13.2811 9.80983 14 10.5287 14 11.5455C14 11.5455 14 12.5622 13.2811 13.2811C13.2811 13.2811 12.5622 14 11.5455 14C11.5455 14 10.5287 14 9.80983 13.2811C9.80983 13.2811 9.09091 12.5622 9.09091 11.5455C9.09091 11.5455 9.09091 10.5287 9.80983 9.80983C9.80983 9.80983 10.5287 9.09091 11.5455 9.09091ZM11.5455 10.1818C11.5455 10.1818 10.9806 10.1818 10.5812 10.5812C10.5812 10.5812 10.1818 10.9806 10.1818 11.5455C10.1818 11.5455 10.1818 12.1103 10.5812 12.5097C10.5812 12.5097 10.9806 12.9091 11.5455 12.9091C11.5455 12.9091 12.1103 12.9091 12.5097 12.5097C12.5097 12.5097 12.9091 12.1103 12.9091 11.5455C12.9091 11.5455 12.9091 10.9806 12.5097 10.5812C12.5097 10.5812 12.1103 10.1818 11.5455 10.1818Z" fill="#ADBFDF"/>
</svg>
