<svg width="24" height="24" viewBox="0 0 24 24" fill="none" xmlns="http://www.w3.org/2000/svg">
<path fill-rule="evenodd" clip-rule="evenodd" d="M8.88889 11.1111H4V4H8.88889V11.1111ZM8.88889 20V17.3333H4V20H8.88889ZM20 20V12.8889H15.1111V20H20ZM15.1111 6.66667H20V4H15.1111V6.66667ZM3 13.1111C2.44772 13.1111 2 12.6634 2 12.1111V3C2 2.44772 2.44772 2 3 2H9.88889C10.4412 2 10.8889 2.44771 10.8889 3V12.1111C10.8889 12.6634 10.4412 13.1111 9.88889 13.1111H3ZM3 22C2.44772 22 2 21.5523 2 21V16.3333C2 15.781 2.44772 15.3333 3 15.3333H9.88889C10.4412 15.3333 10.8889 15.781 10.8889 16.3333V21C10.8889 21.5523 10.4412 22 9.88889 22H3ZM14.1111 22C13.5588 22 13.1111 21.5523 13.1111 21V11.8889C13.1111 11.3366 13.5588 10.8889 14.1111 10.8889H21C21.5523 10.8889 22 11.3366 22 11.8889V21C22 21.5523 21.5523 22 21 22H14.1111ZM13.1111 3C13.1111 2.44772 13.5588 2 14.1111 2H21C21.5523 2 22 2.44771 22 3V7.66667C22 8.21895 21.5523 8.66667 21 8.66667H14.1111C13.5588 8.66667 13.1111 8.21895 13.1111 7.66667V3Z" fill="#ADBFDF"/>
</svg>
