<svg width="16" height="16" viewBox="0 0 16 16" fill="none" xmlns="http://www.w3.org/2000/svg">
<path fill-rule="evenodd" clip-rule="evenodd" d="M15.5785 7.81923C15.5785 7.81923 15.4472 7.97222 15.2669 8.06234L15.2662 8.06271L13.7221 8.83161C13.4784 8.95299 13.1823 8.85702 13.0561 8.61572L11.0561 4.79072L11.052 4.78265C10.9285 4.53566 11.0286 4.23532 11.2756 4.11183L12.8347 3.33232C12.8347 3.33232 13.1995 3.14634 13.5895 3.27142C13.5895 3.27142 13.9794 3.3965 14.1674 3.75881L15.7037 6.7002C15.7037 6.7002 15.7982 6.87877 15.8159 7.08001C15.8159 7.08001 15.8337 7.28125 15.7719 7.4736C15.7719 7.4736 15.7101 7.66595 15.5785 7.81923ZM14.8198 7.16787L13.2833 4.22602L12.1782 4.77855L13.7152 7.71794L14.8198 7.16787Z" fill="#ADBFDF"/>
<path fill-rule="evenodd" clip-rule="evenodd" d="M4.94248 4.72163L2.94248 8.55288C2.81612 8.79494 2.51894 8.89086 2.27491 8.76835L0.731162 7.99335C0.731162 7.99335 0.554164 7.90663 0.421921 7.75409C0.421921 7.75409 0.289677 7.60155 0.227439 7.4095C0.227439 7.4095 0.1652 7.21745 0.182834 7.01633C0.182834 7.01633 0.200468 6.81522 0.295179 6.63693L1.83105 3.69627C1.83105 3.69627 2.01828 3.33639 2.40426 3.20894C2.40426 3.20894 2.79024 3.08149 3.15568 3.25948L4.72285 4.04304C4.96984 4.16653 5.06995 4.46687 4.94646 4.71386L4.94248 4.72163ZM2.7178 4.15852L3.82055 4.70991L2.28375 7.65384L1.18128 7.10038L2.71743 4.15922L2.7178 4.15852Z" fill="#ADBFDF"/>
<path d="M2.80697 7.92741L6.22566 10.5961L6.23315 10.6021L9.83294 11.502C9.83886 11.5027 9.84471 11.5011 9.84471 11.5011C9.8505 11.4995 9.85519 11.4959 9.85519 11.4959L12.1315 9.21964L13.1185 8.05993C13.2044 7.95894 13.327 7.89624 13.4591 7.8856C13.4725 7.88453 13.4859 7.88399 13.4992 7.88399C13.618 7.88399 13.7329 7.92626 13.8233 8.00322C13.9243 8.08917 13.987 8.21171 13.9976 8.34389C13.9987 8.3569 13.9992 8.36995 13.9992 8.383L13.9992 8.38399C13.9992 8.50274 13.957 8.61762 13.88 8.70805L12.88 9.88305C12.8713 9.89324 12.8623 9.90308 12.8528 9.91254L10.5528 12.2125C10.5488 12.2165 10.5448 12.2204 10.5407 12.2242C10.3555 12.3974 10.111 12.465 10.111 12.465C9.86659 12.5325 9.61869 12.479 9.61869 12.479C9.61343 12.4778 9.60819 12.4766 9.60297 12.4753L5.97797 11.5691L5.96498 11.5656C5.76419 11.5097 5.61032 11.3844 5.61032 11.3844L2.19164 8.71568C2.07019 8.62087 1.99924 8.47548 1.99924 8.32149C1.99924 8.22431 2.02756 8.12923 2.08074 8.04789C2.08838 8.0362 2.09651 8.02483 2.10511 8.01382C2.19986 7.89244 2.34525 7.82149 2.49924 7.82149C2.59642 7.82149 2.6915 7.84981 2.77284 7.90299C2.78453 7.91063 2.7959 7.91876 2.80697 7.92741Z" fill="#ADBFDF"/>
<path d="M8.95633 5.05905H11.4992C11.7754 5.05905 11.9992 4.83519 11.9992 4.55905C11.9992 4.2829 11.7754 4.05905 11.4992 4.05905H8.95548C8.7593 4.05835 8.5762 4.13355 8.5762 4.13355C8.39311 4.20875 8.2528 4.34837 8.2528 4.34837L5.80237 6.79254C5.64646 6.95253 5.57253 7.15568 5.57253 7.15568C5.4986 7.35883 5.51464 7.57443 5.51464 7.57443C5.53067 7.79002 5.63385 7.98 5.63385 7.98C5.73702 8.16999 5.90912 8.30083 5.90912 8.30083L6.24687 8.55727C6.91706 9.05749 7.74923 9.05749 7.74923 9.05749C8.58139 9.05749 9.24829 8.55974 9.24829 8.55974L9.7538 8.18062L12.205 9.96334C12.2906 10.0256 12.3936 10.059 12.4992 10.059C12.5081 10.059 12.5169 10.0588 12.5258 10.0583C12.6762 10.0503 12.815 9.97495 12.9036 9.85313C12.9657 9.76767 12.9992 9.66472 12.9992 9.55905C12.9992 9.55019 12.999 9.54133 12.9985 9.53249C12.9905 9.38207 12.9151 9.24327 12.7933 9.15468L10.0433 7.15468C9.86579 7.02557 9.62483 7.02734 9.44923 7.15905L8.65016 7.75835C8.24936 8.05749 7.74923 8.05749 7.74923 8.05749C7.2491 8.05749 6.85158 7.76082 6.85158 7.76082L6.51434 7.50477C6.51327 7.50395 6.51262 7.50277 6.51262 7.50277C6.51198 7.50159 6.51188 7.50025 6.51188 7.50025C6.51178 7.49891 6.51224 7.49765 6.51224 7.49765C6.51199 7.49744 6.50942 7.49971 6.50942 7.49971L8.95633 5.05905Z" fill="#ADBFDF"/>
<path d="M10.0426 5.01436C10.1075 5.04381 10.178 5.05904 10.2492 5.05904C10.2578 5.05904 10.2663 5.05882 10.2748 5.05839C10.4615 5.04882 10.6273 4.93589 10.7046 4.76565C10.734 4.70075 10.7492 4.63031 10.7492 4.55904L10.7492 4.55082C10.7482 4.49353 10.7374 4.43682 10.7173 4.38318C10.6707 4.25904 10.5766 4.15852 10.4558 4.10373L8.29335 3.12247C7.95809 2.97096 7.60517 3.07217 7.60517 3.07217L4.39652 4.01036C4.26914 4.0476 4.16186 4.13386 4.09818 4.25017C4.05787 4.32379 4.03674 4.40637 4.03674 4.49029L4.03681 4.49826C4.03752 4.54308 4.04426 4.58759 4.05684 4.63062C4.11917 4.84379 4.31465 4.99029 4.53674 4.99029L4.5396 4.99029C4.58613 4.99002 4.6324 4.98326 4.67707 4.9702L7.88082 4.03342L10.0426 5.01436Z" fill="#ADBFDF"/>
<path d="M3.82683 11.125C3.73591 11.0462 3.61959 11.0028 3.49924 11.0028C3.48741 11.0028 3.47558 11.0032 3.46378 11.004C3.33151 11.0134 3.20839 11.075 3.1215 11.1752C3.04265 11.2661 2.99924 11.3824 2.99924 11.5028C2.99924 11.5146 2.99966 11.5264 3.0005 11.5382C3.0099 11.6705 3.07146 11.7936 3.17164 11.8805L4.58415 13.1055C4.76192 13.2644 5.00071 13.3201 5.00071 13.3201L6.87683 13.7938C6.91685 13.8039 6.95796 13.809 6.99924 13.809C7.00448 13.809 7.00972 13.8089 7.01495 13.8088C7.238 13.8018 7.42939 13.6478 7.48402 13.4314C7.49413 13.3914 7.49924 13.3503 7.49924 13.309C7.49924 13.3013 7.49906 13.2937 7.49871 13.286C7.49492 13.2037 7.47083 13.1236 7.42859 13.0528C7.36063 12.9389 7.25022 12.8567 7.12164 12.8242L5.24039 12.3492L5.2376 12.3485L3.82683 11.125Z" fill="#ADBFDF"/>
</svg>
