<svg width="16" height="16" viewBox="0 0 16 16" fill="none" xmlns="http://www.w3.org/2000/svg">
<path fill-rule="evenodd" clip-rule="evenodd" d="M13.6069 14.6846C13.6069 14.6846 13.2915 15 12.8454 15H3.1531C3.1531 15 2.70702 15 2.3916 14.6846C2.3916 14.6846 2.07617 14.3692 2.07617 13.9231V2.07692C2.07617 2.07692 2.07617 1.63085 2.3916 1.31542C2.3916 1.31542 2.70702 1 3.1531 1H9.61463C9.75744 1 9.8944 1.05673 9.99538 1.15771L13.7646 4.92694C13.8656 5.02792 13.9223 5.16488 13.9223 5.30769V13.9231C13.9223 13.9231 13.9223 14.3692 13.6069 14.6846ZM12.8454 13.9231V5.53073L9.3916 2.07692H3.1531V13.9231H12.8454Z" fill="#1C1C1C"/>
<path d="M9.61463 5.84615H13.3839C13.6812 5.84615 13.9223 5.60508 13.9223 5.30769C13.9223 5.01031 13.6812 4.76923 13.3839 4.76923H10.1531V1.53846C10.1531 1.24108 9.91202 1 9.61463 1C9.31725 1 9.07617 1.24108 9.07617 1.53846V5.30769C9.07617 5.60508 9.31725 5.84615 9.61463 5.84615Z" fill="#1C1C1C"/>
<path d="M9.50284 9.72663C9.60382 9.82761 9.74106 9.88462 9.88386 9.88462C10.0267 9.88462 10.1636 9.82789 10.2646 9.7269C10.3656 9.62592 10.4223 9.48896 10.4223 9.34615C10.4223 9.20335 10.3656 9.06639 10.2646 8.9654L8.38 7.08079C8.27902 6.97981 8.14206 6.92308 7.99925 6.92308C7.85644 6.92308 7.71948 6.97981 7.6185 7.08079L5.73388 8.9654C5.6329 9.06639 5.57617 9.20335 5.57617 9.34615C5.57617 9.35478 5.57638 9.3634 5.57679 9.37202C5.58322 9.50573 5.63923 9.63225 5.73388 9.7269C5.83487 9.82789 5.97182 9.88462 6.11463 9.88462C6.25744 9.88462 6.3944 9.82789 6.49538 9.7269L7.99925 8.22304L9.50284 9.72663Z" fill="#1C1C1C"/>
<path d="M8.53771 11.7692V7.46154C8.53771 7.16415 8.29663 6.92308 7.99925 6.92308C7.70187 6.92308 7.46079 7.16415 7.46079 7.46154V11.7692C7.46079 12.0666 7.70187 12.3077 7.99925 12.3077C8.29663 12.3077 8.53771 12.0666 8.53771 11.7692Z" fill="#1C1C1C"/>
</svg>
