<svg width="24" height="24" viewBox="0 0 24 24" fill="none" xmlns="http://www.w3.org/2000/svg">
<path fill-rule="evenodd" clip-rule="evenodd" d="M5.5 3C3.84315 3 2.5 4.34315 2.5 6L2.5 18C2.5 19.6569 3.84315 21 5.5 21H7C7.55228 21 8 20.5523 8 20C8 19.4477 7.55228 19 7 19H5.5C4.94772 19 4.5 18.5523 4.5 18L4.5 6C4.5 5.44772 4.94772 5 5.5 5H7C7.55228 5 8 4.55228 8 4C8 3.44772 7.55228 3 7 3L5.5 3ZM7.5 12C7.5 12.5523 7.94772 13 8.5 13L17.2546 13L14.2567 16.331C13.8872 16.7415 13.9205 17.3738 14.331 17.7433C14.7415 18.1128 15.3738 18.0795 15.7433 17.669L20.2433 12.669C20.5856 12.2887 20.5856 11.7113 20.2433 11.331L15.7433 6.33104C15.3738 5.92053 14.7415 5.88725 14.331 6.25671C13.9205 6.62616 13.8872 7.25845 14.2567 7.66896L17.2546 11H8.5C7.94772 11 7.5 11.4477 7.5 12Z" fill="#FCFCFC"/>
</svg>
