<svg width="24" height="24" viewBox="0 0 24 24" fill="none" xmlns="http://www.w3.org/2000/svg">
<path fill-rule="evenodd" clip-rule="evenodd" d="M15.7954 3.01651C13.9831 2.25 12 2.25 12 2.25C10.0169 2.25 8.20463 3.01651 8.20463 3.01651C6.45478 3.75663 5.10571 5.10571 5.10571 5.10571C3.75663 6.45478 3.01651 8.20463 3.01651 8.20463C2.25 10.0169 2.25 12 2.25 12C2.25 13.9831 3.01651 15.7954 3.01651 15.7954C3.75663 17.5452 5.10571 18.8943 5.10571 18.8943C5.20939 18.998 5.31543 19.098 5.42286 19.1945C5.46216 19.2383 5.5068 19.2777 5.55613 19.3116C6.81382 20.3952 8.20463 20.9835 8.20463 20.9835C10.0169 21.75 12 21.75 12 21.75C13.9831 21.75 15.7954 20.9835 15.7954 20.9835C16.9048 20.5142 17.8531 19.8002 18.3987 19.3404C18.478 19.2938 18.5469 19.2337 18.603 19.164C18.7905 18.9981 18.8943 18.8943 18.8943 18.8943C20.2434 17.5452 20.9835 15.7954 20.9835 15.7954C21.75 13.9831 21.75 12 21.75 12C21.75 10.0169 20.9835 8.20463 20.9835 8.20463C20.2434 6.45478 18.8943 5.10571 18.8943 5.10571C17.5452 3.75663 15.7954 3.01651 15.7954 3.01651ZM8.78896 19.602C8.06651 19.2964 7.42461 18.8679 6.95669 18.5093C7.74756 17.3195 8.86128 16.6359 8.86128 16.6359C10.3055 15.7494 12 15.75 12 15.75C13.6945 15.75 15.1387 16.6359 15.1387 16.6359C16.0479 17.194 16.6888 17.9996 17.0388 18.5199C16.1045 19.2241 15.211 19.602 15.211 19.602C13.679 20.25 12 20.25 12 20.25C10.321 20.25 8.78896 19.602 8.78896 19.602ZM8.07661 15.3575C8.07661 15.3575 8.52866 15.0802 9.24576 14.8031C9.09906 14.6927 8.95557 14.5695 8.81802 14.432C8.81802 14.432 7.5 13.114 7.5 11.25C7.5 11.25 7.5 9.38604 8.81802 8.06802C8.81802 8.06802 10.136 6.75 12 6.75C12 6.75 13.864 6.75 15.182 8.06802C15.182 8.06802 16.5 9.38604 16.5 11.25C16.5 11.25 16.5 13.114 15.182 14.432C15.182 14.432 15.0277 14.5863 14.75 14.7893C15.1396 14.9355 15.5386 15.1213 15.9234 15.3575C15.9234 15.3575 17.1804 16.129 18.1537 17.4818C18.5386 17.0335 19.1848 16.1973 19.602 15.211C19.602 15.211 20.25 13.6789 20.25 12C20.25 12 20.25 10.3211 19.602 8.78896C19.602 8.78896 18.9758 7.30857 17.8336 6.16637C17.8336 6.16637 16.6914 5.02417 15.211 4.39802C15.211 4.39802 13.679 3.75 12 3.75C12 3.75 10.321 3.75 8.78896 4.39802C8.78896 4.39802 7.30857 5.02417 6.16637 6.16637C6.16637 6.16637 5.02417 7.30857 4.39802 8.78896C4.39802 8.78896 3.75 10.321 3.75 12C3.75 12 3.75 13.679 4.39802 15.211C4.39802 15.211 4.90957 16.4205 5.85137 17.4965C6.31101 16.854 7.05946 15.9818 8.07661 15.3575ZM14.1213 13.3713C13.2426 14.25 12 14.25 12 14.25C10.7574 14.25 9.87868 13.3713 9.87868 13.3713C9 12.4926 9 11.25 9 11.25C9 10.0074 9.87868 9.12868 9.87868 9.12868C10.7574 8.25 12 8.25 12 8.25C13.2426 8.25 14.1213 9.12868 14.1213 9.12868C15 10.0074 15 11.25 15 11.25C15 12.4926 14.1213 13.3713 14.1213 13.3713Z" fill="#A6B0BC"/>
</svg>
