<svg width="16" height="16" viewBox="0 0 16 16" fill="none" xmlns="http://www.w3.org/2000/svg">
<path d="M2.69167 1.33203H1.51852C1.23215 1.33203 1 1.56418 1 1.85055C1 2.13692 1.23215 2.36907 1.51852 2.36907H2.68671L4.49541 12.3137C4.54025 12.5602 4.75497 12.7394 5.00556 12.7394H12.4074C12.6938 12.7394 12.9259 12.5073 12.9259 12.2209C12.9259 11.9346 12.6938 11.7024 12.4074 11.7024H5.43827L3.70774 2.18761C3.64227 1.81913 3.35657 1.57738 3.35657 1.57738C3.07087 1.33564 2.69167 1.33203 2.69167 1.33203Z" fill="#121922"/>
<path fill-rule="evenodd" clip-rule="evenodd" d="M5.66667 11.7024C5.66667 11.7024 6.41839 11.7024 6.94993 12.2339C6.94993 12.2339 7.48148 12.7655 7.48148 13.5172C7.48148 13.5172 7.48148 14.2689 6.94993 14.8005C6.94993 14.8005 6.41839 15.332 5.66667 15.332C5.66667 15.332 4.91495 15.332 4.3834 14.8005C4.3834 14.8005 3.85185 14.2689 3.85185 13.5172C3.85185 13.5172 3.85185 12.7655 4.3834 12.2339C4.3834 12.2339 4.91495 11.7024 5.66667 11.7024ZM5.66667 12.7394C5.66667 12.7394 5.3445 12.7394 5.11669 12.9672C5.11669 12.9672 4.88889 13.1951 4.88889 13.5172C4.88889 13.5172 4.88889 13.8394 5.11669 14.0672C5.11669 14.0672 5.3445 14.295 5.66667 14.295C5.66667 14.295 5.98883 14.295 6.21664 14.0672C6.21664 14.0672 6.44444 13.8394 6.44444 13.5172C6.44444 13.5172 6.44444 13.1951 6.21664 12.9672C6.21664 12.9672 5.98883 12.7394 5.66667 12.7394Z" fill="#121922"/>
<path fill-rule="evenodd" clip-rule="evenodd" d="M12.4074 11.7024C12.4074 11.7024 13.1591 11.7024 13.6907 12.2339C13.6907 12.2339 14.2222 12.7655 14.2222 13.5172C14.2222 13.5172 14.2222 14.2689 13.6907 14.8005C13.6907 14.8005 13.1591 15.332 12.4074 15.332C12.4074 15.332 11.6557 15.332 11.1241 14.8005C11.1241 14.8005 10.5926 14.2689 10.5926 13.5172C10.5926 13.5172 10.5926 12.7655 11.1241 12.2339C11.1241 12.2339 11.6557 11.7024 12.4074 11.7024ZM12.4074 12.7394C12.4074 12.7394 12.0852 12.7394 11.8574 12.9672C11.8574 12.9672 11.6296 13.1951 11.6296 13.5172C11.6296 13.5172 11.6296 13.8394 11.8574 14.0672C11.8574 14.0672 12.0852 14.295 12.4074 14.295C12.4074 14.295 12.7296 14.295 12.9574 14.0672C12.9574 14.0672 13.1852 13.8394 13.1852 13.5172C13.1852 13.5172 13.1852 13.1951 12.9574 12.9672C12.9574 12.9672 12.7296 12.7394 12.4074 12.7394Z" fill="#121922"/>
<path d="M14.4815 3.92462H3.59259C3.30622 3.92462 3.07407 4.15677 3.07407 4.44314C3.07407 4.72951 3.30622 4.96166 3.59259 4.96166H13.8599L13.1806 8.68623C13.1475 8.87148 13.0043 8.99093 13.0043 8.99093C12.8612 9.11038 12.6747 9.10981 12.6747 9.10981L4.53241 9.10981C4.24604 9.10981 4.01389 9.34196 4.01389 9.62833C4.01389 9.9147 4.24604 10.1468 4.53241 10.1468L12.6716 10.1468C13.2356 10.1486 13.6687 9.78719 13.6687 9.78719C14.1018 9.42581 14.2008 8.87228 14.2008 8.87228L14.9916 4.53617C14.9972 4.50547 15 4.47434 15 4.44314C15 4.15677 14.7679 3.92462 14.4815 3.92462Z" fill="#121922"/>
</svg>
