<svg width="134" height="36" viewBox="0 0 134 36" fill="none" xmlns="http://www.w3.org/2000/svg">
<path d="M16.1108 13.1981C16.0431 13.1079 15.8062 12.9388 15.4001 12.6908C14.9939 12.4428 14.4862 12.1836 13.877 11.913C13.2677 11.6199 12.6021 11.3832 11.88 11.2029C11.158 11 10.4359 10.8985 9.71388 10.8985C7.72824 10.8985 6.73541 11.5636 6.73541 12.8937C6.73541 13.7053 7.16413 14.2802 8.02157 14.6184C8.90157 14.9566 10.1539 15.3624 11.7785 15.8358C13.3129 16.2642 14.6329 16.7601 15.7385 17.3238C16.8667 17.8648 17.7355 18.5975 18.3447 19.5219C18.9539 20.4237 19.2585 21.6185 19.2585 23.1065C19.2585 24.4591 19.0103 25.6089 18.5139 26.5558C18.0175 27.4801 17.3406 28.2354 16.4831 28.8216C15.6257 29.3852 14.6554 29.8022 13.5724 30.0728C12.5118 30.3208 11.4062 30.4448 10.2554 30.4448C8.47285 30.4448 6.66772 30.1855 4.84002 29.667C3.01232 29.1259 1.39898 28.3932 0 27.4689L2.43693 22.633C2.52719 22.7458 2.82052 22.9599 3.31694 23.2756C3.81335 23.5686 4.43386 23.8843 5.17848 24.2224C5.9231 24.5606 6.73541 24.8537 7.61541 25.1017C8.51798 25.3271 9.43183 25.4398 10.357 25.4398C12.32 25.4398 13.3016 24.8424 13.3016 23.6475C13.3016 23.0388 13.0421 22.5654 12.5231 22.2272C12.0267 21.8665 11.3385 21.5622 10.4585 21.3142C9.5785 21.0436 8.58567 20.7393 7.48003 20.4011C5.26874 19.7248 3.63283 18.9019 2.57232 17.9325C1.53436 16.963 1.01539 15.5765 1.01539 13.773C1.01539 12.0821 1.41026 10.6618 2.20001 9.51202C3.01232 8.3397 4.0954 7.46045 5.44925 6.87429C6.8031 6.26558 8.28106 5.96123 9.88312 5.96123C11.5754 5.96123 13.1775 6.25431 14.6893 6.84047C16.2011 7.40409 17.4873 7.99025 18.5478 8.59896L16.1108 13.1981Z" fill="#091336"/>
<path d="M33.8912 30.1742L29.2543 23.0727L27.3589 25.0002V30.1742H21.9435V7.17864L27.3589 5.48779V19.7586L33.3835 12.4203H39.1036L32.7066 20.0629L39.6451 30.1742H33.8912Z" fill="#091336"/>
<path d="M41.2134 30.1742V16.6474L46.6288 14.2908V30.1742H41.2134Z" fill="#091336"/>
<path d="M76.1581 30.5124C74.5109 30.5124 73.0555 30.1179 71.7919 29.3288C70.5283 28.5172 69.5355 27.4125 68.8135 26.0147C68.114 24.617 67.7642 23.0388 67.7642 21.2803C67.7642 19.567 68.1027 18.0114 68.7796 16.6136C69.4565 15.2158 70.3817 14.1111 71.555 13.2995C72.7509 12.4879 74.1048 12.0821 75.6166 12.0821C76.8802 12.0821 78.0084 12.3752 79.0012 12.9614C80.0166 13.5475 80.7951 14.3366 81.3366 15.3286V12.657H86.752V30.1742H81.3704V27.5365C80.8289 28.5059 80.1294 29.2499 79.272 29.7684C78.4145 30.2644 77.3766 30.5124 76.1581 30.5124ZM81.3704 19.7924C81.0094 18.8455 80.4566 18.0903 79.712 17.5267C78.9899 16.963 78.2002 16.6812 77.3427 16.6812C76.5755 16.6812 75.8873 16.9067 75.2781 17.3576C74.6914 17.7859 74.2176 18.3608 73.8566 19.0822C73.5181 19.8037 73.3489 20.5702 73.3489 21.3818C73.3489 22.6894 73.7437 23.7828 74.5335 24.6621C75.3232 25.5187 76.3386 25.9471 77.5797 25.9471C78.4145 25.9471 79.1366 25.7329 79.7458 25.3046C80.3776 24.8537 80.9192 24.245 81.3704 23.4785V19.7924Z" fill="#091336"/>
<path d="M50.3697 30.0685V12.3939L55.7851 9.79947V30.0685H50.3697Z" fill="#091336"/>
<path d="M59.7085 30.0685L59.7084 8.10862L65.1238 5.48779V30.0685H59.7085Z" fill="#091336"/>
<path d="M41.2134 5.48779V13.3503L46.4463 9.42958L41.2134 5.48779Z" fill="#091336"/>
<rect x="92.8691" width="41.1309" height="36" rx="3.05856" fill="#002CFB"/>
<path d="M103.057 26.9998V7.82982H106.246V26.9998H103.057Z" fill="white"/>
<path d="M122.775 12.3388C122.585 12.1408 122.31 11.9338 121.949 11.7178C121.589 11.4838 121.162 11.2678 120.668 11.0698C120.174 10.8718 119.643 10.7098 119.073 10.5838C118.504 10.4578 117.915 10.3948 117.308 10.3948C115.979 10.3948 114.992 10.6288 114.346 11.0968C113.701 11.5648 113.378 12.2128 113.378 13.0408C113.378 13.6528 113.559 14.1388 113.919 14.4988C114.28 14.8408 114.831 15.1288 115.571 15.3628C116.311 15.5968 117.241 15.8488 118.361 16.1188C119.728 16.4248 120.915 16.7938 121.921 17.2258C122.927 17.6398 123.696 18.1978 124.227 18.8998C124.759 19.6018 125.025 20.5288 125.025 21.6808C125.025 22.6528 124.835 23.4898 124.455 24.1918C124.075 24.8938 123.544 25.4698 122.861 25.9198C122.177 26.3518 121.389 26.6758 120.497 26.8918C119.605 27.0898 118.646 27.1888 117.621 27.1888C116.615 27.1888 115.609 27.0898 114.603 26.8918C113.616 26.6938 112.666 26.4058 111.755 26.0278C110.863 25.6318 110.037 25.1548 109.278 24.5968L110.73 22.0048C110.977 22.2388 111.328 22.4998 111.784 22.7878C112.258 23.0578 112.799 23.3188 113.407 23.5708C114.033 23.8228 114.707 24.0388 115.429 24.2188C116.169 24.3808 116.919 24.4618 117.678 24.4618C118.95 24.4618 119.918 24.2548 120.583 23.8408C121.266 23.4088 121.608 22.7968 121.608 22.0048C121.608 21.3568 121.389 20.8438 120.953 20.4658C120.516 20.0698 119.88 19.7368 119.045 19.4668C118.21 19.1968 117.213 18.9268 116.055 18.6568C114.726 18.3148 113.616 17.9458 112.723 17.5498C111.831 17.1358 111.157 16.6138 110.702 15.9838C110.265 15.3358 110.047 14.5168 110.047 13.5268C110.047 12.2668 110.369 11.2048 111.015 10.3408C111.66 9.45882 112.534 8.80182 113.635 8.36982C114.755 7.91982 116.007 7.69482 117.393 7.69482C118.304 7.69482 119.168 7.79382 119.985 7.99182C120.801 8.17182 121.56 8.42382 122.263 8.74782C122.984 9.07182 123.639 9.44082 124.227 9.85482L122.775 12.3388Z" fill="white"/>
</svg>
