<svg width="17" height="16" viewBox="0 0 17 16" fill="none" xmlns="http://www.w3.org/2000/svg">
<path fill-rule="evenodd" clip-rule="evenodd" d="M6.57539 0.994063C5.6467 0 4.33334 0 4.33334 0C3.01998 0 2.09129 0.994063 2.09129 0.994063C1.16261 1.98813 1.16261 3.39394 1.16261 3.39394C1.16261 4.79976 2.09129 5.79382 2.09129 5.79382C2.19952 5.90967 2.31297 6.01202 2.42896 6.10244C2.0456 6.27517 1.8104 6.43241 1.8104 6.43241C0.652761 7.20632 0.0537925 8.51903 0.0537925 8.51903C0.0185097 8.59637 0 8.68166 0 8.76768L4.50217e-05 8.77504C0.000776162 8.83515 0.0104536 8.89475 0.0287134 8.95159C0.0742836 9.09346 0.170639 9.21015 0.296581 9.27597C0.368793 9.31372 0.448095 9.33333 0.528455 9.33333L0.54059 9.33318C0.738124 9.32833 0.916627 9.20592 1.00332 9.01587C1.46938 7.99422 2.37027 7.39195 2.37027 7.39195C3.27117 6.78968 4.33333 6.78968 4.33333 6.78968C5.3955 6.78968 6.29639 7.39195 6.29639 7.39195C7.19685 7.99393 7.66289 9.01487 7.66289 9.01487C7.71748 9.13454 7.80855 9.22762 7.91765 9.28146L4.51848 12.2152C4.50987 12.2226 4.50153 12.2304 4.49348 12.2384C3.94752 12.7844 3.94752 13.5565 3.94752 13.5565C3.94752 14.3286 4.49348 14.8746 4.49348 14.8746C5.03943 15.4205 5.81153 15.4205 5.81153 15.4205C6.58363 15.4205 7.12959 14.8746 7.12959 14.8746C7.13764 14.8665 7.14539 14.8582 7.15282 14.8495L10.1798 11.3424C11.2028 11.8011 12.3434 11.6715 12.3434 11.6715C13.6764 11.52 14.6726 10.6214 14.6726 10.6214C15.6688 9.72278 15.9565 8.41239 15.9565 8.41239C16.2442 7.102 15.716 5.86874 15.716 5.86874C15.6926 5.81411 15.659 5.76446 15.6169 5.72248C15.5295 5.63531 15.4111 5.58642 15.2876 5.58656C15.1642 5.58671 15.0459 5.63588 14.9587 5.72327L12.6976 7.98973L11.5995 7.76855L11.3783 6.67039L13.6448 4.40932C13.6868 4.36734 13.7205 4.3177 13.7439 4.26306C13.8451 4.02679 13.7356 3.75322 13.4993 3.65203C12.266 3.12385 10.9556 3.41154 10.9556 3.41154C9.64524 3.69923 8.74666 4.69544 8.74666 4.69544C7.84807 5.69166 7.69657 7.02468 7.69657 7.02468C7.69137 7.07045 7.68712 7.11603 7.68374 7.16136C7.24223 6.69053 6.85627 6.43241 6.85627 6.43241C6.65257 6.29623 6.44246 6.18401 6.23449 6.09154C6.45309 5.92473 6.57539 5.79382 6.57539 5.79382C7.50407 4.79976 7.50407 3.39394 7.50407 3.39394C7.50407 1.98813 6.57539 0.994063 6.57539 0.994063ZM2.83864 1.79402C3.45777 1.13131 4.33334 1.13131 4.33334 1.13131C5.20891 1.13131 5.82804 1.79402 5.82804 1.79402C6.44716 2.45673 6.44716 3.39394 6.44716 3.39394C6.44716 4.33116 5.82804 4.99387 5.82804 4.99387C5.20891 5.65657 4.33334 5.65657 4.33334 5.65657C3.45777 5.65657 2.83864 4.99387 2.83864 4.99387C2.21952 4.33116 2.21952 3.39394 2.21952 3.39394C2.21952 2.45673 2.83864 1.79402 2.83864 1.79402ZM10.2909 10.3577C11.2022 10.8644 12.2382 10.7466 12.2382 10.7466C13.2746 10.6288 14.0492 9.93021 14.0492 9.93021C14.8237 9.23158 15.0473 8.21279 15.0473 8.21279C15.1912 7.55748 15.0726 6.92698 15.0726 6.92698L13.1801 8.82399C13.07 8.93445 12.9117 8.98234 12.7588 8.95153L11.1124 8.61994C10.9287 8.58293 10.7851 8.43933 10.7481 8.25559L10.4165 6.60925C10.3857 6.45629 10.4336 6.29808 10.544 6.18788L12.4411 4.29538C11.8106 4.17681 11.1552 4.32068 11.1552 4.32068C10.1364 4.54435 9.43782 5.31888 9.43782 5.31888C8.7392 6.0934 8.62141 7.12978 8.62141 7.12978C8.50363 8.16616 9.01064 9.07771 9.01064 9.07771C9.11787 9.27051 9.07501 9.5121 8.908 9.65625L5.14073 12.9077C4.87832 13.1777 4.87832 13.5565 4.87832 13.5565C4.87832 13.943 5.15165 14.2164 5.15165 14.2164C5.42498 14.4897 5.81153 14.4897 5.81153 14.4897C6.19028 14.4897 6.46033 14.2273 6.46033 14.2273L9.71178 10.46C9.77108 10.3913 9.84919 10.3414 9.93647 10.3166C10.0552 10.2827 10.1825 10.2974 10.2903 10.3574L10.2909 10.3577Z" fill="#121922"/>
</svg>
