<svg width="23" height="21" viewBox="0 0 23 21" fill="none" xmlns="http://www.w3.org/2000/svg">
<path fill-rule="evenodd" clip-rule="evenodd" d="M10.2861 1.48527C10.8309 0.567411 12.1691 0.567412 12.7139 1.48527L22.7706 18.1604C23.3236 19.092 22.8358 20.2031 21.746 20.2031H1.25396C0.16417 20.2031 -0.323614 19.092 0.229361 18.1604L10.2861 1.48527ZM13.0369 17.6497C13.0369 18.4215 12.3558 19.1817 11.5 19.1817C10.4754 19.1817 9.94929 18.3388 9.94929 17.567C9.94929 16.7951 10.6431 16.1695 11.4988 16.1695C12.3546 16.1695 13.0369 16.8778 13.0369 17.6497ZM11.5 4.8824C10.722 4.8824 10.1869 5.64265 10.1869 6.41447V13.3744C10.1869 14.1463 10.722 15.0962 11.5 15.0962C12.278 15.0962 12.7603 14.1463 12.7603 13.3744V6.41447C12.7603 5.64265 12.278 4.8824 11.5 4.8824Z" fill="#E10D0D"/>
</svg>
