<svg width="23" height="23" viewBox="0 0 23 23" fill="none" xmlns="http://www.w3.org/2000/svg">
<path fill-rule="evenodd" clip-rule="evenodd" d="M3.83073 11.5C3.83073 7.26607 7.25885 3.83335 11.4878 3.83335C15.7301 3.83335 19.1641 7.26981 19.1641 11.5C19.1641 15.7302 15.7301 19.1667 11.4878 19.1667C7.25885 19.1667 3.83073 15.734 3.83073 11.5ZM11.4878 1.91669C6.19781 1.91669 1.91406 6.21002 1.91406 11.5C1.91406 16.79 6.19781 21.0834 11.4878 21.0834C16.7874 21.0834 21.0807 16.79 21.0807 11.5C21.0807 6.21002 16.7874 1.91669 11.4878 1.91669ZM10.4432 6.70835C10.2315 6.70835 10.0599 6.87998 10.0599 7.09169V11.9792C10.0599 12.2769 10.1982 12.5577 10.4343 12.7391L14.6824 16.0034C14.8503 16.1324 15.091 16.1009 15.22 15.9331L15.9207 15.0212C16.0497 14.8533 16.0181 14.6126 15.8503 14.4837L12.1263 11.6221C12.0319 11.5495 11.9766 11.4372 11.9766 11.3181V7.09169C11.9766 6.87998 11.8049 6.70835 11.5932 6.70835H10.4432Z" fill="#121922"/>
</svg>
