<svg width="40" height="40" viewBox="0 0 40 40" fill="none" xmlns="http://www.w3.org/2000/svg">
<rect width="40" height="40" rx="20" fill="#4D5268"/>
<path d="M22.16 18.3981L17.16 14.8281C16.46 14.3281 15.53 14.3281 14.84 14.8281L9.84 18.3981C9.31 18.7781 9 19.3781 9 20.0281V27.9981C9 28.5481 9.45 28.9981 10 28.9981H14V22.9981H18V28.9981H22C22.55 28.9981 23 28.5481 23 27.9981V20.0281C23 19.3781 22.69 18.7781 22.16 18.3981Z" fill="#C7C9D1"/>
<path d="M29.03 11H19.97C18.88 11 18 11.88 18 12.97L18.09 13.06C18.17 13.11 18.25 13.15 18.33 13.2L23.33 16.77C24.09 17.31 24.63 18.11 24.87 19H27V21H25V23H27V25H25V29H29.03C30.12 29 31 28.12 31 27.03V12.97C31 11.88 30.12 11 29.03 11ZM27 17H25V15H27V17Z" fill="#C7C9D1"/>
</svg>
