<svg width="95" height="28" viewBox="0 0 95 28" fill="none" xmlns="http://www.w3.org/2000/svg">
<path d="M17.6426 8.62703C17.5685 8.52613 17.309 8.33694 16.8642 8.05946C16.4195 7.78198 15.8635 7.49189 15.1963 7.18919C14.5292 6.86126 13.8003 6.59639 13.0096 6.39459C12.2188 6.16757 11.4281 6.05405 10.6374 6.05405C8.463 6.05405 7.37579 6.7982 7.37579 8.28648C7.37579 9.19459 7.84527 9.83784 8.78423 10.2162C9.7479 10.5946 11.1193 11.0486 12.8984 11.5784C14.5786 12.0577 16.0241 12.6126 17.2349 13.2432C18.4703 13.8486 19.4217 14.6685 20.0888 15.7027C20.756 16.7117 21.0896 18.0486 21.0896 19.7135C21.0896 21.227 20.8178 22.5135 20.2741 23.573C19.7305 24.6072 18.9893 25.4523 18.0503 26.1081C17.1113 26.7387 16.0488 27.2054 14.8628 27.5081C13.7014 27.7856 12.4907 27.9243 11.2305 27.9243C9.27842 27.9243 7.30166 27.6342 5.30019 27.0541C3.29872 26.4487 1.53199 25.6288 0 24.5946L2.66863 19.1838C2.76746 19.3099 3.08869 19.5495 3.6323 19.9027C4.17591 20.2306 4.85542 20.5838 5.67083 20.9622C6.48624 21.3405 7.37578 21.6685 8.33945 21.9459C9.32783 22.1982 10.3286 22.3243 11.3417 22.3243C13.4914 22.3243 14.5662 21.6559 14.5662 20.3189C14.5662 19.6378 14.2821 19.1081 13.7138 18.7297C13.1702 18.3261 12.4165 17.9856 11.4529 17.7081C10.4892 17.4054 9.40196 17.0649 8.1912 16.6865C5.76967 15.9297 3.97823 15.009 2.81688 13.9243C1.68025 12.8396 1.11193 11.2883 1.11193 9.27027C1.11193 7.37838 1.54434 5.78919 2.40918 4.5027C3.29872 3.19099 4.48477 2.20721 5.96734 1.55135C7.44991 0.87027 9.06839 0.52973 10.8228 0.52973C12.676 0.52973 14.4303 0.857657 16.0859 1.51351C17.7414 2.14414 19.1499 2.8 20.3112 3.48108L17.6426 8.62703Z" fill="white"/>
<path d="M37.1135 27.6216L32.0357 19.6757L29.9601 21.8324V27.6216H24.0298V1.89189L29.9601 0V15.9676L36.5575 7.75676H42.8214L35.8162 16.3081L43.4144 27.6216H37.1135Z" fill="white"/>
<path d="M45.1318 27.6216V12.4865L51.0621 9.84967V27.6216H45.1318Z" fill="white"/>
<path d="M83.3989 28C81.5951 28 80.0013 27.5586 78.6176 26.6757C77.2339 25.7676 76.1467 24.5315 75.356 22.9676C74.59 21.4036 74.207 19.6378 74.207 17.6703C74.207 15.7532 74.5776 14.0126 75.3189 12.4486C76.0602 10.8847 77.0733 9.64865 78.3582 8.74054C79.6678 7.83243 81.1503 7.37838 82.8059 7.37838C84.1896 7.37838 85.4251 7.70631 86.5123 8.36216C87.6242 9.01802 88.4767 9.9009 89.0697 11.0108V8.02162H95V27.6216H89.1068V24.6703C88.5138 25.755 87.7478 26.5874 86.8088 27.1676C85.8698 27.7225 84.7332 28 83.3989 28ZM89.1068 16.0054C88.7114 14.9459 88.1061 14.1009 87.2906 13.4703C86.4999 12.8396 85.6351 12.5243 84.6961 12.5243C83.856 12.5243 83.1024 12.7766 82.4352 13.2811C81.7928 13.7604 81.2739 14.4036 80.8785 15.2108C80.5079 16.018 80.3226 16.8757 80.3226 17.7838C80.3226 19.2468 80.755 20.4703 81.6198 21.4541C82.4847 22.4126 83.5966 22.8919 84.9556 22.8919C85.8698 22.8919 86.6605 22.6523 87.3277 22.173C88.0196 21.6685 88.6126 20.9874 89.1068 20.1297V16.0054Z" fill="white"/>
<path d="M55.1586 27.5034V7.72719L61.0889 4.82433V27.5034H55.1586Z" fill="white"/>
<path d="M65.3853 27.5034L65.3852 2.93244L71.3155 0V27.5034H65.3853Z" fill="white"/>
<path d="M45.1318 0V8.7973L50.8622 4.41046L45.1318 0Z" fill="white"/>
</svg>
