<svg width="16" height="16" viewBox="0 0 16 16" fill="none" xmlns="http://www.w3.org/2000/svg">
<path fill-rule="evenodd" clip-rule="evenodd" d="M5.7006 13.5424C5.7006 13.5424 5.48322 13.4514 4.80695 13.4422C4.80695 13.4422 4.22875 13.4342 3.94434 13.3822C3.94434 13.3822 3.38541 13.28 3.0527 12.9473C3.0527 12.9473 2.71797 12.6126 2.61422 12.0441C2.61422 12.0441 2.56147 11.7551 2.55233 11.1683C2.55233 11.1683 2.54194 10.5023 2.45709 10.2983C2.45709 10.2983 2.37047 10.09 1.89849 9.5962C1.89849 9.5962 1.49262 9.17157 1.32735 8.93275C1.32735 8.93275 1 8.45973 1 8C1 8 1 7.54229 1.32209 7.07611C1.32209 7.07611 1.48489 6.84047 1.88621 6.42169C1.88621 6.42169 2.36465 5.92245 2.45756 5.7006C2.45756 5.7006 2.5486 5.48322 2.55785 4.80695C2.55785 4.80695 2.56575 4.22875 2.61777 3.94434C2.61777 3.94434 2.71998 3.38541 3.0527 3.0527C3.0527 3.0527 3.38742 2.71797 3.9559 2.61422C3.9559 2.61422 4.24492 2.56147 4.83171 2.55233C4.83171 2.55233 5.49772 2.54194 5.70173 2.45709C5.70173 2.45709 5.91 2.37047 6.4038 1.89849C6.4038 1.89849 6.82843 1.49262 7.06725 1.32735C7.06725 1.32735 7.54027 1 8 1C8 1 8.45771 1 8.92389 1.32209C8.92389 1.32209 9.15953 1.48489 9.57831 1.88621C9.57831 1.88621 10.0775 2.36465 10.2994 2.45756C10.2994 2.45756 10.5168 2.5486 11.193 2.55785C11.193 2.55785 11.7712 2.56575 12.0557 2.61777C12.0557 2.61777 12.6146 2.71998 12.9473 3.0527C12.9473 3.0527 13.282 3.38742 13.3858 3.95591C13.3858 3.95591 13.4385 4.24492 13.4477 4.83171C13.4477 4.83171 13.4581 5.49772 13.5429 5.70173C13.5429 5.70173 13.6295 5.91 14.1015 6.4038C14.1015 6.4038 14.5074 6.82843 14.6726 7.06725C14.6726 7.06725 15 7.54027 15 8C15 8 15 8.45771 14.6779 8.92389C14.6779 8.92389 14.5151 9.15953 14.1138 9.57831C14.1138 9.57831 13.6353 10.0775 13.5424 10.2994C13.5424 10.2994 13.4514 10.5168 13.4422 11.193C13.4422 11.193 13.4342 11.7713 13.3822 12.0557C13.3822 12.0557 13.28 12.6146 12.9473 12.9473C12.9473 12.9473 12.6126 13.282 12.0441 13.3858C12.0441 13.3858 11.7551 13.4385 11.1683 13.4477C11.1683 13.4477 10.5023 13.4581 10.2983 13.5429C10.2983 13.5429 10.09 13.6295 9.5962 14.1015C9.5962 14.1015 9.17157 14.5074 8.93275 14.6726C8.93275 14.6726 8.45973 15 8 15C8 15 7.54229 15 7.07611 14.6779C7.07611 14.6779 6.84047 14.5151 6.42169 14.1138C6.42169 14.1138 5.92245 13.6354 5.7006 13.5424ZM6.0869 12.6201C6.0869 12.6201 6.48017 12.7848 7.1136 13.3918C7.1136 13.3918 7.74824 14 8 14C8 14 8.25513 14 8.90525 13.3786C8.90525 13.3786 9.53382 12.7778 9.91423 12.6196C9.91423 12.6196 10.2951 12.4612 11.1527 12.4478C11.1527 12.4478 12.0465 12.4339 12.2402 12.2402C12.2402 12.2402 12.4303 12.0501 12.4422 11.1794C12.4422 11.1794 12.4541 10.3093 12.6201 9.9131C12.6201 9.9131 12.7848 9.51983 13.3918 8.8864C13.3918 8.8864 14 8.25176 14 8C14 8 14 7.74487 13.3786 7.09475C13.3786 7.09475 12.7778 6.46618 12.6196 6.08577C12.6196 6.08577 12.4612 5.70487 12.4478 4.84729C12.4478 4.84729 12.4339 3.95347 12.2402 3.7598C12.2402 3.7598 12.0501 3.56966 11.1794 3.55775C11.1794 3.55775 10.3093 3.54586 9.9131 3.37994C9.9131 3.37994 9.51983 3.21523 8.8864 2.6082C8.8864 2.6082 8.25176 2 8 2C8 2 7.74487 2 7.09475 2.62139C7.09475 2.62139 6.46618 3.22219 6.08577 3.38041C6.08577 3.38041 5.70487 3.53884 4.84729 3.5522C4.84729 3.5522 3.95347 3.56614 3.7598 3.7598C3.7598 3.7598 3.56966 3.94995 3.55775 4.82062C3.55775 4.82062 3.54586 5.69072 3.37994 6.0869C3.37994 6.0869 3.21523 6.48017 2.6082 7.1136C2.6082 7.1136 2 7.74824 2 8C2 8 2 8.25513 2.62139 8.90525C2.62139 8.90525 3.22219 9.53382 3.38041 9.91423C3.38041 9.91423 3.53884 10.2951 3.5522 11.1527C3.5522 11.1527 3.56614 12.0465 3.7598 12.2402C3.7598 12.2402 3.94995 12.4303 4.82062 12.4422C4.82062 12.4422 5.69072 12.4541 6.0869 12.6201Z" fill="#ADBFDF"/>
<path d="M5.59544 7.88852C5.50241 7.79961 5.37868 7.75 5.25 7.75L5.23866 7.75013C5.10608 7.75314 4.98014 7.80869 4.88852 7.90456C4.79961 7.99759 4.75 8.12132 4.75 8.25L4.75013 8.26134C4.75314 8.39392 4.80869 8.51986 4.90456 8.61148L6.73581 10.3615C6.92895 10.5461 7.23308 10.5462 7.42639 10.3618L11.095 6.86189C11.191 6.77036 11.2467 6.64434 11.2499 6.51177C11.25 6.50376 11.25 6.49575 11.2498 6.48774C11.2468 6.36348 11.1976 6.2448 11.1118 6.15486C11.0174 6.05596 10.8867 6 10.75 6L10.7359 6.0002C10.6123 6.00369 10.4943 6.05286 10.4049 6.13822L7.08154 9.30868L5.59544 7.88852Z" fill="#ADBFDF"/>
</svg>
