<svg width="16" height="16" viewBox="0 0 16 16" fill="none" xmlns="http://www.w3.org/2000/svg">
<path fill-rule="evenodd" clip-rule="evenodd" d="M1.5 12V3.5C1.5 3.22386 1.72386 3 2 3H14C14.2761 3 14.5 3.22386 14.5 3.5V12C14.5 12 14.5 12.4142 14.2071 12.7071C14.2071 12.7071 13.9142 13 13.5 13H2.5C2.5 13 2.08579 13 1.79289 12.7071C1.79289 12.7071 1.5 12.4142 1.5 12ZM2.5 12H13.5V4H2.5V12Z" fill="#ADBFDF"/>
<path d="M2.33786 3.13142C2.24565 3.04689 2.1251 3 2 3C1.99276 3 1.98552 3.00016 1.97828 3.00047C1.8458 3.00623 1.72103 3.06438 1.63142 3.16214C1.54689 3.25435 1.5 3.3749 1.5 3.5C1.5 3.50724 1.50016 3.51448 1.50047 3.52172C1.50623 3.6542 1.56438 3.77897 1.66214 3.86858L7.66214 9.36858C7.8533 9.54381 8.1467 9.54381 8.33786 9.36858L14.3375 3.86888C14.4408 3.77418 14.5 3.64015 14.5 3.5L14.5 3.49584C14.499 3.37219 14.4521 3.2533 14.3686 3.16214C14.279 3.06439 14.1542 3.00623 14.0217 3.00047C14.0145 3.00016 14.0072 3 14 3L13.9977 3.00001C13.8734 3.00058 13.7538 3.04743 13.6621 3.13142L8 8.32172L2.33786 3.13142Z" fill="#ADBFDF"/>
</svg>
