<svg width="20" height="20" viewBox="0 0 20 20" fill="none" xmlns="http://www.w3.org/2000/svg">
<path d="M13.7232 7.78569C13.8404 7.66848 13.9062 7.50951 13.9062 7.34375C13.9062 7.17799 13.8404 7.01902 13.7232 6.90181C13.606 6.7846 13.447 6.71875 13.2812 6.71875C13.1155 6.71875 12.9565 6.7846 12.8393 6.90181L10 9.74112L7.16093 6.90204C7.04372 6.78483 6.88451 6.71875 6.71875 6.71875C6.70874 6.71875 6.69873 6.71899 6.68873 6.71947C6.53353 6.72694 6.38668 6.79194 6.27681 6.90181C6.1596 7.01902 6.09375 7.17799 6.09375 7.34375C6.09375 7.50951 6.1596 7.66848 6.27681 7.78569L9.55806 11.0669C9.67527 11.1842 9.83424 11.25 10 11.25C10.1658 11.25 10.3247 11.1842 10.4419 11.0669L13.7232 7.78569Z" fill="white"/>
<path d="M9.375 1.875V10.625C9.375 10.9702 9.65482 11.25 10 11.25C10.3452 11.25 10.625 10.9702 10.625 10.625V1.875C10.625 1.52982 10.3452 1.25 10 1.25C9.65482 1.25 9.375 1.52982 9.375 1.875Z" fill="white"/>
<path d="M3.75 15V10.625C3.75 10.2798 3.47018 10 3.125 10C2.77982 10 2.5 10.2798 2.5 10.625V15C2.5 15.5178 2.86612 15.8839 2.86612 15.8839C3.23223 16.25 3.75 16.25 3.75 16.25H16.25C16.7678 16.25 17.1339 15.8839 17.1339 15.8839C17.5 15.5178 17.5 15 17.5 15V10.625C17.5 10.2798 17.2202 10 16.875 10C16.5298 10 16.25 10.2798 16.25 10.625V15H3.75Z" fill="white"/>
</svg>
