<svg width="16" height="16" viewBox="0 0 16 16" fill="none" xmlns="http://www.w3.org/2000/svg">
<path d="M10.9786 6.22855C11.0723 6.13479 11.125 6.00761 11.125 5.875C11.125 5.74239 11.0723 5.61521 10.9786 5.52145C10.8848 5.42768 10.7576 5.375 10.625 5.375C10.4924 5.375 10.3652 5.42768 10.2714 5.52145L8 7.79289L5.72874 5.52163C5.63497 5.42787 5.50761 5.375 5.375 5.375C5.36699 5.375 5.35898 5.37519 5.35098 5.37558C5.22682 5.38155 5.10934 5.43355 5.02145 5.52145C4.92768 5.61521 4.875 5.74239 4.875 5.875C4.875 6.00761 4.92768 6.13479 5.02145 6.22855L7.64645 8.85355C7.74022 8.94732 7.86739 9 8 9C8.13261 9 8.25979 8.94732 8.35355 8.85355L10.9786 6.22855Z" fill="#ADBFDF"/>
<path d="M7.5 1.5L7.5 8.5C7.5 8.77614 7.72386 9 8 9C8.27614 9 8.5 8.77614 8.5 8.5V1.5C8.5 1.22386 8.27614 1 8 1C7.72386 1 7.5 1.22386 7.5 1.5Z" fill="#ADBFDF"/>
<path d="M3 12V8.5C3 8.22386 2.77614 8 2.5 8C2.22386 8 2 8.22386 2 8.5V12C2 12.4142 2.29289 12.7071 2.29289 12.7071C2.58579 13 3 13 3 13H13C13.4142 13 13.7071 12.7071 13.7071 12.7071C14 12.4142 14 12 14 12V8.5C14 8.22386 13.7761 8 13.5 8C13.2239 8 13 8.22386 13 8.5V12H3Z" fill="#ADBFDF"/>
</svg>
