<svg width="36" height="36" viewBox="0 0 36 36" fill="none" xmlns="http://www.w3.org/2000/svg">
<path fill-rule="evenodd" clip-rule="evenodd" d="M16.3111 4.95776C17.0691 3.68075 18.9309 3.68075 19.6889 4.95776L33.6809 28.1579C34.4502 29.4541 33.7716 31 32.2554 31H3.74464C2.22841 31 1.54975 29.4541 2.31911 28.1579L16.3111 4.95776ZM20.1383 27.4474C20.1383 28.5212 19.1907 29.5789 18 29.5789C16.5745 29.5789 15.8425 28.4061 15.8425 27.3323C15.8425 26.2585 16.8077 25.3879 17.9984 25.3879C19.1891 25.3879 20.1383 26.3735 20.1383 27.4474ZM18 9.68421C16.9176 9.68421 16.1731 10.7419 16.1731 11.8158V21.4992C16.1731 22.5731 16.9176 23.8947 18 23.8947C19.0824 23.8947 19.7535 22.5731 19.7535 21.4992V11.8158C19.7535 10.7419 19.0824 9.68421 18 9.68421Z" fill="#E10D0D"/>
</svg>
