<svg width="36" height="36" viewBox="0 0 36 36" fill="none" xmlns="http://www.w3.org/2000/svg">
<path fill-rule="evenodd" clip-rule="evenodd" d="M6 18C6 11.3729 11.3658 6 17.985 6C24.6251 6 30 11.3788 30 18C30 24.6212 24.6251 30 17.985 30C11.3658 30 6 24.6271 6 18ZM17.985 3C9.705 3 3 9.72 3 18C3 26.28 9.705 33 17.985 33C26.28 33 33 26.28 33 18C33 9.72 26.28 3 17.985 3ZM16.35 10.5C16.0186 10.5 15.75 10.7686 15.75 11.1V18.75C15.75 19.216 15.9666 19.6555 16.336 19.9394L22.9853 25.0488C23.248 25.2507 23.6247 25.2014 23.8266 24.9387L24.9234 23.5114C25.1253 23.2486 25.076 22.8719 24.8132 22.67L18.9844 18.1911C18.8366 18.0775 18.75 17.9017 18.75 17.7153V11.1C18.75 10.7686 18.4814 10.5 18.15 10.5H16.35Z" fill="#8E9AA8"/>
</svg>
