<svg width="24" height="24" viewBox="0 0 24 24" fill="none" xmlns="http://www.w3.org/2000/svg">
<path fill-rule="evenodd" clip-rule="evenodd" d="M12 22C17.5228 22 22 17.5228 22 12C22 6.47715 17.5228 2 12 2C6.47715 2 2 6.47715 2 12C2 17.5228 6.47715 22 12 22ZM12 4.85714C12.789 4.85714 13.4286 5.49674 13.4286 6.28571V13.4286C13.4286 14.2176 12.789 14.8571 12 14.8571C11.211 14.8571 10.5714 14.2176 10.5714 13.4286V6.28571C10.5714 5.49674 11.211 4.85714 12 4.85714ZM12 19.1429C12.8679 19.1429 13.5715 18.5033 13.5715 17.7143C13.5715 16.9253 12.8679 16.2857 12 16.2857C11.1322 16.2857 10.4286 16.9253 10.4286 17.7143C10.4286 18.5033 11.1322 19.1429 12 19.1429Z" fill="#121922"/>
</svg>
