<svg width="16" height="16" viewBox="0 0 16 16" fill="none" xmlns="http://www.w3.org/2000/svg">
<g clip-path="url(#clip0_903_48563)">
<path fill-rule="evenodd" clip-rule="evenodd" d="M1.19995 2.9444C1.19995 1.70812 2.20812 0.699951 3.4444 0.699951H8.49995C8.94178 0.699951 9.29995 1.05812 9.29995 1.49995C9.29995 1.94178 8.94178 2.29995 8.49995 2.29995H3.4444C3.09178 2.29995 2.79995 2.59178 2.79995 2.9444V13.0555C2.79995 13.4081 3.09178 13.7 3.4444 13.7H8.49995C8.94178 13.7 9.29995 14.0581 9.29995 14.5C9.29995 14.9418 8.94178 15.3 8.49995 15.3H3.4444C2.20812 15.3 1.19995 14.2918 1.19995 13.0555V2.9444ZM9.93427 4.93427C10.2467 4.62185 10.7532 4.62185 11.0656 4.93427L13.5656 7.43427C13.8781 7.74669 13.8781 8.25322 13.5656 8.56564L11.0656 11.0656C10.7532 11.3781 10.2467 11.3781 9.93427 11.0656C9.62185 10.7532 9.62185 10.2467 9.93427 9.93427L11.0686 8.79995H5.33328C4.89146 8.79995 4.53328 8.44178 4.53328 7.99995C4.53328 7.55812 4.89146 7.19995 5.33328 7.19995H11.0686L9.93427 6.06564C9.62185 5.75322 9.62185 5.24669 9.93427 4.93427Z" fill="white" fill-opacity="0.56"/>
</g>
<defs>
<clipPath id="clip0_903_48563">
<rect width="16" height="16" fill="white"/>
</clipPath>
</defs>
</svg>
