<svg width="25" height="24" viewBox="0 0 25 24" fill="none" xmlns="http://www.w3.org/2000/svg">
<path fill-rule="evenodd" clip-rule="evenodd" d="M4.90217 11.7577C4.83429 11.8442 4.77247 11.9253 4.71683 12C4.77247 12.0747 4.83429 12.1558 4.90217 12.2423C5.27882 12.7227 5.83617 13.3636 6.55499 14.0026C8.00333 15.29 10.0258 16.5 12.5 16.5C14.9742 16.5 16.9967 15.29 18.445 14.0026C19.1638 13.3636 19.7212 12.7227 20.0978 12.2423C20.1657 12.1558 20.2275 12.0747 20.2832 12C20.2275 11.9253 20.1657 11.8442 20.0978 11.7577C19.7212 11.2773 19.1638 10.6364 18.445 9.99741C16.9967 8.71 14.9742 7.5 12.5 7.5C10.0258 7.5 8.00333 8.71 6.55499 9.99741C5.83617 10.6364 5.27882 11.2773 4.90217 11.7577ZM22.3519 11.4763C22.3521 11.4767 22.3523 11.477 21.5 12C22.3523 12.523 22.3521 12.5233 22.3519 12.5237L22.3514 12.5245L22.3502 12.5265L22.3468 12.532L22.3362 12.5489C22.3275 12.5627 22.3154 12.5817 22.3 12.6054C22.2693 12.6529 22.2253 12.7194 22.1683 12.8024C22.0545 12.9682 21.8882 13.2003 21.6717 13.4764C21.2398 14.0273 20.6018 14.7614 19.7737 15.4974C18.1283 16.96 15.6508 18.5 12.5 18.5C9.34919 18.5 6.87167 16.96 5.22626 15.4974C4.39821 14.7614 3.76024 14.0273 3.3283 13.4764C3.11178 13.2003 2.94554 12.9682 2.83165 12.8024C2.77467 12.7194 2.73069 12.6529 2.69996 12.6054C2.6846 12.5817 2.67253 12.5627 2.66381 12.5489L2.65323 12.532L2.64983 12.5265L2.64859 12.5245L2.6481 12.5237C2.64788 12.5233 2.64768 12.523 3.5 12C2.64768 11.477 2.64788 11.4767 2.6481 11.4763L2.64859 11.4755L2.64983 11.4735L2.65323 11.468L2.66381 11.4511C2.67253 11.4373 2.6846 11.4183 2.69996 11.3946C2.73069 11.3471 2.77467 11.2806 2.83165 11.1976C2.94554 11.0318 3.11178 10.7997 3.3283 10.5236C3.76024 9.97271 4.39821 9.23864 5.22626 8.50259C6.87167 7.04 9.34919 5.5 12.5 5.5C15.6508 5.5 18.1283 7.04 19.7737 8.50259C20.6018 9.23864 21.2398 9.97271 21.6717 10.5236C21.8882 10.7997 22.0545 11.0318 22.1683 11.1976C22.2253 11.2806 22.2693 11.3471 22.3 11.3946C22.3154 11.4183 22.3275 11.4373 22.3362 11.4511L22.3468 11.468L22.3502 11.4735L22.3514 11.4755L22.3519 11.4763ZM21.5 12L22.3523 12.523C22.5492 12.2021 22.5492 11.7979 22.3523 11.477L21.5 12ZM3.5 12L2.64768 11.477C2.45077 11.7979 2.45077 12.2021 2.64768 12.523L3.5 12ZM12.5 15C14.1569 15 15.5 13.6569 15.5 12C15.5 10.3431 14.1569 9 12.5 9C10.8431 9 9.5 10.3431 9.5 12C9.5 13.6569 10.8431 15 12.5 15Z" fill="white" fill-opacity="0.56"/>
</svg>
