<svg width="180" height="32" viewBox="0 0 180 32" fill="none" xmlns="http://www.w3.org/2000/svg">
<path d="M14.8952 11.8132C14.8362 11.7346 14.6296 11.5872 14.2755 11.371C13.9214 11.1548 13.4787 10.9287 12.9475 10.6928C12.4164 10.4373 11.836 10.2309 11.2065 10.0737C10.5769 9.89678 9.9474 9.80832 9.31787 9.80832C7.58664 9.80832 6.72103 10.3882 6.72103 11.5479C6.72103 12.2555 7.09482 12.7567 7.84239 13.0516C8.60964 13.3464 9.70149 13.7002 11.118 14.113C12.4557 14.4865 13.6066 14.9189 14.5706 15.4103C15.5542 15.882 16.3116 16.5209 16.8428 17.3268C17.374 18.113 17.6396 19.1548 17.6396 20.4521C17.6396 21.6314 17.4232 22.6339 16.9903 23.4594C16.5575 24.2653 15.9674 24.9238 15.2198 25.4349C14.4722 25.9263 13.6263 26.2899 12.682 26.5258C11.7573 26.742 10.7933 26.8501 9.79002 26.8501C8.23585 26.8501 6.66201 26.6241 5.0685 26.172C3.47498 25.7002 2.06836 25.0614 0.848633 24.2555L2.97332 20.0393C3.05201 20.1376 3.30776 20.3243 3.74057 20.5995C4.17337 20.855 4.71438 21.1302 5.36359 21.425C6.0128 21.7199 6.72103 21.9754 7.48828 22.1916C8.2752 22.3882 9.07196 22.4865 9.87855 22.4865C11.5901 22.4865 12.4459 21.9656 12.4459 20.9238C12.4459 20.3931 12.2196 19.9803 11.7672 19.6855C11.3344 19.371 10.7343 19.1056 9.96708 18.8894C9.19983 18.6535 8.33422 18.3882 7.37024 18.0933C5.44228 17.5037 4.01599 16.7862 3.09136 15.941C2.1864 15.0958 1.73392 13.8869 1.73392 12.3145C1.73392 10.8403 2.0782 9.60194 2.76675 8.59948C3.47498 7.57737 4.41929 6.81078 5.59967 6.29973C6.78005 5.76901 8.06863 5.50366 9.46542 5.50366C10.9409 5.50366 12.3377 5.75919 13.6558 6.27024C14.9739 6.76164 16.0952 7.2727 17.0199 7.80341L14.8952 11.8132Z" fill="#FFD500"/>
<path d="M30.3974 26.6142L26.3545 20.4226L24.702 22.1032V26.6142H19.9805V6.56508L24.702 5.09088V17.5331L29.9547 11.1351H34.9418L29.3645 17.7985L35.414 26.6142H30.3974Z" fill="#FFD500"/>
<path d="M36.7813 26.6142V14.8206L41.5029 12.7659V26.6142H36.7813Z" fill="#FFD500"/>
<path d="M67.2485 26.9091C65.8124 26.9091 64.5435 26.5651 63.4418 25.8771C62.3401 25.1695 61.4745 24.2064 60.845 22.9877C60.2351 21.769 59.9302 20.3931 59.9302 18.8599C59.9302 17.3661 60.2253 16.0098 60.8155 14.7911C61.4056 13.5725 62.2122 12.6093 63.2352 11.9017C64.2779 11.1941 65.4583 10.8403 66.7764 10.8403C67.8781 10.8403 68.8617 11.0958 69.7273 11.6069C70.6126 12.1179 71.2913 12.8059 71.7635 13.6707V11.3415H76.485V26.6142H71.793V24.3145C71.3209 25.1597 70.711 25.8083 69.9634 26.2604C69.2158 26.6928 68.3109 26.9091 67.2485 26.9091ZM71.793 17.5626C71.4782 16.7371 70.9963 16.0786 70.347 15.5872C69.7175 15.0958 69.0289 14.8501 68.2814 14.8501C67.6125 14.8501 67.0125 15.0467 66.4813 15.4398C65.9698 15.8132 65.5566 16.3145 65.2419 16.9435C64.9468 17.5725 64.7992 18.2408 64.7992 18.9484C64.7992 20.0884 65.1435 21.0417 65.8321 21.8083C66.5206 22.5553 67.4059 22.9287 68.4879 22.9287C69.2158 22.9287 69.8454 22.742 70.3765 22.3685C70.9274 21.9754 71.3995 21.4447 71.793 20.7764V17.5626Z" fill="#FFD500"/>
<path d="M44.7644 26.5221V11.1121L49.4859 8.8501V26.5221H44.7644Z" fill="#FFD500"/>
<path d="M52.9066 26.5221L52.9065 7.3759L57.6281 5.09088V26.5221H52.9066Z" fill="#FFD500"/>
<path d="M36.7813 5.09088V11.9459L41.3437 8.52761L36.7813 5.09088Z" fill="#FFD500"/>
<rect x="81.8184" width="97.3333" height="32" rx="3" fill="#8800FF"/>
<path d="M90.4048 24V6.95998H97.5568C98.3248 6.95998 99.0288 7.11998 99.6688 7.43998C100.309 7.75998 100.869 8.18398 101.349 8.71198C101.829 9.23998 102.197 9.83198 102.453 10.488C102.709 11.144 102.837 11.816 102.837 12.504C102.837 13.448 102.621 14.352 102.189 15.216C101.773 16.064 101.173 16.752 100.389 17.28C99.6208 17.808 98.7248 18.072 97.7008 18.072H93.0928V24H90.4048ZM93.0928 15.696H97.5328C98.0448 15.696 98.4928 15.56 98.8768 15.288C99.2608 15 99.5568 14.616 99.7648 14.136C99.9888 13.656 100.101 13.112 100.101 12.504C100.101 11.88 99.9728 11.328 99.7168 10.848C99.4608 10.368 99.1248 9.99998 98.7088 9.74398C98.3088 9.47198 97.8688 9.33598 97.3888 9.33598H93.0928V15.696Z" fill="white"/>
<path d="M103.969 20.328C103.969 19.528 104.193 18.832 104.641 18.24C105.105 17.632 105.737 17.168 106.537 16.848C107.337 16.512 108.265 16.344 109.321 16.344C109.881 16.344 110.449 16.384 111.025 16.464C111.617 16.544 112.137 16.672 112.585 16.848V16.056C112.585 15.176 112.321 14.488 111.793 13.992C111.265 13.496 110.505 13.248 109.513 13.248C108.809 13.248 108.145 13.376 107.521 13.632C106.897 13.872 106.233 14.216 105.529 14.664L104.641 12.888C105.473 12.328 106.305 11.912 107.137 11.64C107.985 11.368 108.873 11.232 109.801 11.232C111.481 11.232 112.801 11.68 113.761 12.576C114.737 13.456 115.225 14.712 115.225 16.344V21.024C115.225 21.328 115.273 21.544 115.369 21.672C115.481 21.8 115.665 21.872 115.921 21.888V24C115.681 24.048 115.465 24.08 115.273 24.096C115.081 24.112 114.921 24.12 114.793 24.12C114.233 24.12 113.809 23.984 113.521 23.712C113.233 23.44 113.065 23.12 113.017 22.752L112.945 22.032C112.401 22.736 111.705 23.28 110.857 23.664C110.009 24.048 109.153 24.24 108.289 24.24C107.457 24.24 106.713 24.072 106.057 23.736C105.401 23.384 104.889 22.912 104.521 22.32C104.153 21.728 103.969 21.064 103.969 20.328ZM111.961 21.096C112.153 20.888 112.305 20.68 112.417 20.472C112.529 20.264 112.585 20.08 112.585 19.92V18.48C112.137 18.304 111.665 18.176 111.169 18.096C110.673 18 110.185 17.952 109.705 17.952C108.745 17.952 107.961 18.144 107.353 18.528C106.761 18.912 106.465 19.44 106.465 20.112C106.465 20.48 106.561 20.832 106.753 21.168C106.961 21.504 107.249 21.776 107.617 21.984C108.001 22.192 108.473 22.296 109.033 22.296C109.609 22.296 110.161 22.184 110.689 21.96C111.217 21.736 111.641 21.448 111.961 21.096Z" fill="white"/>
<path d="M124.5 24.24C122.404 24.24 120.812 23.608 119.724 22.344C118.636 21.08 118.092 19.272 118.092 16.92C118.092 15.384 118.22 14.088 118.476 13.032C118.748 11.96 119.14 11.08 119.652 10.392C120.18 9.70398 120.828 9.14398 121.596 8.71198C122.38 8.26398 123.284 7.90398 124.308 7.63198L129.66 6.14398L129.756 8.35198L124.5 9.83998C123.668 10.096 122.956 10.432 122.364 10.848C121.788 11.264 121.332 11.808 120.996 12.48C120.66 13.136 120.436 13.968 120.324 14.976C120.772 14.16 121.412 13.52 122.244 13.056C123.076 12.592 124.06 12.36 125.196 12.36C126.364 12.36 127.372 12.608 128.22 13.104C129.068 13.584 129.724 14.256 130.188 15.12C130.652 15.984 130.884 16.976 130.884 18.096C130.884 19.312 130.636 20.384 130.14 21.312C129.66 22.224 128.94 22.944 127.98 23.472C127.036 23.984 125.876 24.24 124.5 24.24ZM124.5 21.984C125.668 21.984 126.572 21.64 127.212 20.952C127.868 20.264 128.196 19.352 128.196 18.216C128.196 17.128 127.868 16.24 127.212 15.552C126.572 14.848 125.668 14.496 124.5 14.496C123.812 14.496 123.188 14.648 122.628 14.952C122.068 15.24 121.628 15.664 121.308 16.224C120.988 16.768 120.828 17.432 120.828 18.216C120.828 18.952 120.972 19.608 121.26 20.184C121.548 20.744 121.964 21.184 122.508 21.504C123.052 21.824 123.716 21.984 124.5 21.984Z" fill="white"/>
<path d="M138.904 24.24C137.912 24.24 137.024 24.072 136.24 23.736C135.456 23.384 134.776 22.904 134.2 22.296C133.64 21.688 133.208 21 132.904 20.232C132.6 19.448 132.448 18.616 132.448 17.736C132.448 16.856 132.6 16.024 132.904 15.24C133.208 14.456 133.64 13.768 134.2 13.176C134.776 12.568 135.456 12.096 136.24 11.76C137.04 11.408 137.928 11.232 138.904 11.232C139.88 11.232 140.76 11.408 141.544 11.76C142.344 12.096 143.024 12.568 143.584 13.176C144.16 13.768 144.6 14.456 144.904 15.24C145.208 16.024 145.36 16.856 145.36 17.736C145.36 18.616 145.208 19.448 144.904 20.232C144.6 21 144.16 21.688 143.584 22.296C143.024 22.904 142.344 23.384 141.544 23.736C140.76 24.072 139.88 24.24 138.904 24.24ZM135.16 17.76C135.16 18.56 135.328 19.28 135.664 19.92C136 20.56 136.448 21.064 137.008 21.432C137.568 21.8 138.2 21.984 138.904 21.984C139.592 21.984 140.216 21.8 140.776 21.432C141.352 21.048 141.808 20.536 142.144 19.896C142.48 19.24 142.648 18.52 142.648 17.736C142.648 16.936 142.48 16.216 142.144 15.576C141.808 14.936 141.352 14.432 140.776 14.064C140.216 13.68 139.592 13.488 138.904 13.488C138.2 13.488 137.568 13.68 137.008 14.064C136.448 14.448 136 14.96 135.664 15.6C135.328 16.224 135.16 16.944 135.16 17.76Z" fill="white"/>
<path d="M150.678 24V13.776H146.526V11.448H157.494V13.776H153.318V24H150.678Z" fill="white"/>
<path d="M158.532 20.328C158.532 19.528 158.756 18.832 159.204 18.24C159.668 17.632 160.3 17.168 161.1 16.848C161.9 16.512 162.828 16.344 163.884 16.344C164.444 16.344 165.012 16.384 165.588 16.464C166.18 16.544 166.7 16.672 167.148 16.848V16.056C167.148 15.176 166.884 14.488 166.356 13.992C165.828 13.496 165.068 13.248 164.076 13.248C163.372 13.248 162.708 13.376 162.084 13.632C161.46 13.872 160.796 14.216 160.092 14.664L159.204 12.888C160.036 12.328 160.868 11.912 161.7 11.64C162.548 11.368 163.436 11.232 164.364 11.232C166.044 11.232 167.364 11.68 168.324 12.576C169.3 13.456 169.788 14.712 169.788 16.344V21.024C169.788 21.328 169.836 21.544 169.932 21.672C170.044 21.8 170.228 21.872 170.484 21.888V24C170.244 24.048 170.028 24.08 169.836 24.096C169.644 24.112 169.484 24.12 169.356 24.12C168.796 24.12 168.372 23.984 168.084 23.712C167.796 23.44 167.628 23.12 167.58 22.752L167.508 22.032C166.964 22.736 166.268 23.28 165.42 23.664C164.572 24.048 163.716 24.24 162.852 24.24C162.02 24.24 161.276 24.072 160.62 23.736C159.964 23.384 159.452 22.912 159.084 22.32C158.716 21.728 158.532 21.064 158.532 20.328ZM166.524 21.096C166.716 20.888 166.868 20.68 166.98 20.472C167.092 20.264 167.148 20.08 167.148 19.92V18.48C166.7 18.304 166.228 18.176 165.732 18.096C165.236 18 164.748 17.952 164.268 17.952C163.308 17.952 162.524 18.144 161.916 18.528C161.324 18.912 161.028 19.44 161.028 20.112C161.028 20.48 161.124 20.832 161.316 21.168C161.524 21.504 161.812 21.776 162.18 21.984C162.564 22.192 163.036 22.296 163.596 22.296C164.172 22.296 164.724 22.184 165.252 21.96C165.78 21.736 166.204 21.448 166.524 21.096Z" fill="white"/>
</svg>
